<svg width="190" height="230" viewBox="0 0 190 230" fill="none" xmlns="http://www.w3.org/2000/svg">
<g filter="url(#filter0_d)">
<rect x="4" y="3" width="180" height="220" fill="white"/>
<rect x="29" y="52" width="130" height="143" fill="#F7F7F7"/>
<path d="M29.8047 37H28.4854V32.3994H23.4678V37H22.1553V27.0469H23.4678V31.3262H28.4854V27.0469H29.8047V37ZM31.6025 33.2334C31.6025 32.5088 31.7438 31.8571 32.0264 31.2783C32.3135 30.6995 32.71 30.2529 33.2158 29.9385C33.7262 29.624 34.3073 29.4668 34.959 29.4668C35.9661 29.4668 36.7796 29.8154 37.3994 30.5127C38.0238 31.21 38.3359 32.1374 38.3359 33.2949V33.3838C38.3359 34.1038 38.1969 34.751 37.9189 35.3252C37.6455 35.8949 37.2513 36.3392 36.7363 36.6582C36.2259 36.9772 35.638 37.1367 34.9727 37.1367C33.9701 37.1367 33.1566 36.7881 32.5322 36.0908C31.9124 35.3936 31.6025 34.4707 31.6025 33.3223V33.2334ZM32.874 33.3838C32.874 34.2041 33.0632 34.8626 33.4414 35.3594C33.8242 35.8561 34.3346 36.1045 34.9727 36.1045C35.6152 36.1045 36.1257 35.8538 36.5039 35.3525C36.8822 34.8467 37.0713 34.1403 37.0713 33.2334C37.0713 32.4222 36.8776 31.766 36.4902 31.2646C36.1074 30.7588 35.597 30.5059 34.959 30.5059C34.3346 30.5059 33.8311 30.7542 33.4482 31.251C33.0654 31.7477 32.874 32.4587 32.874 33.3838ZM41.1113 29.6035L41.1455 30.4238C41.6878 29.7858 42.4193 29.4668 43.3398 29.4668C44.3743 29.4668 45.0785 29.8633 45.4521 30.6562C45.6982 30.3008 46.0173 30.0137 46.4092 29.7949C46.8057 29.5762 47.2728 29.4668 47.8105 29.4668C49.4329 29.4668 50.2578 30.3258 50.2852 32.0439V37H49.0205V32.1191C49.0205 31.5905 48.8997 31.1963 48.6582 30.9365C48.4167 30.6722 48.0111 30.54 47.4414 30.54C46.972 30.54 46.5824 30.6813 46.2725 30.9639C45.9626 31.2419 45.7826 31.6178 45.7324 32.0918V37H44.4609V32.1533C44.4609 31.0778 43.9346 30.54 42.8818 30.54C42.0524 30.54 41.485 30.8932 41.1797 31.5996V37H39.915V29.6035H41.1113ZM55.2686 37.1367C54.266 37.1367 53.4502 36.8086 52.8213 36.1523C52.1924 35.4915 51.8779 34.6097 51.8779 33.5068V33.2744C51.8779 32.5407 52.0169 31.8867 52.2949 31.3125C52.5775 30.7337 52.9694 30.2826 53.4707 29.959C53.9766 29.6309 54.5234 29.4668 55.1113 29.4668C56.0729 29.4668 56.8203 29.7835 57.3535 30.417C57.8867 31.0505 58.1533 31.9574 58.1533 33.1377V33.6641H53.1426C53.1608 34.3932 53.3727 34.9834 53.7783 35.4346C54.1885 35.8812 54.708 36.1045 55.3369 36.1045C55.7835 36.1045 56.1618 36.0133 56.4717 35.8311C56.7816 35.6488 57.0527 35.4072 57.2852 35.1064L58.0576 35.708C57.4378 36.6605 56.5081 37.1367 55.2686 37.1367ZM55.1113 30.5059C54.6009 30.5059 54.1725 30.6927 53.8262 31.0664C53.4798 31.4355 53.2656 31.9551 53.1836 32.625H56.8887V32.5293C56.8522 31.8867 56.679 31.39 56.3691 31.0391C56.0592 30.6836 55.64 30.5059 55.1113 30.5059Z" fill="#383838"/>
<path d="M12 4H176V2H12V4ZM183 11V215H185V11H183ZM176 222H12V224H176V222ZM5 215V11H3V215H5ZM12 222C8.13401 222 5 218.866 5 215H3C3 219.971 7.02944 224 12 224V222ZM183 215C183 218.866 179.866 222 176 222V224C180.971 224 185 219.971 185 215H183ZM176 4C179.866 4 183 7.13401 183 11H185C185 6.02944 180.971 2 176 2V4ZM12 2C7.02944 2 3 6.02944 3 11H5C5 7.13401 8.13401 4 12 4V2Z" fill="#EDEDED"/>
</g>
<defs>
<filter id="filter0_d" x="0" y="0" width="190" height="230" filterUnits="userSpaceOnUse" color-interpolation-filters="sRGB">
<feFlood flood-opacity="0" result="BackgroundImageFix"/>
<feColorMatrix in="SourceAlpha" type="matrix" values="0 0 0 0 0 0 0 0 0 0 0 0 0 0 0 0 0 0 127 0"/>
<feOffset dx="1" dy="2"/>
<feGaussianBlur stdDeviation="2.5"/>
<feColorMatrix type="matrix" values="0 0 0 0 0 0 0 0 0 0 0 0 0 0 0 0 0 0 0.1 0"/>
<feBlend mode="normal" in2="BackgroundImageFix" result="effect1_dropShadow"/>
<feBlend mode="normal" in="SourceGraphic" in2="effect1_dropShadow" result="shape"/>
</filter>
</defs>
</svg>
