<svg width="200" height="180" viewBox="0 0 200 180" fill="none" xmlns="http://www.w3.org/2000/svg">
<rect width="200" height="180" fill="#8592AD"/>
<path fill-rule="evenodd" clip-rule="evenodd" d="M115.976 94.6094C115.976 94.6094 132.451 109.328 135.26 113.891C136.972 116.678 129.059 124.311 125.982 123.175C120.761 121.244 106.968 104.152 106.968 104.152C102.781 106.846 97.8013 108.425 92.456 108.425C77.5685 108.425 65.5 96.3562 65.5 81.4687C65.5 66.5685 77.5653 54.5 92.4528 54.5C107.34 54.5 119.409 66.5685 119.409 81.4655C119.409 86.235 118.158 90.7149 115.976 94.6094ZM92.456 63.25C82.4016 63.2723 74.269 71.4049 74.2499 81.4688C74.269 91.52 82.4016 99.6526 92.456 99.6749C102.523 99.6526 110.656 91.5232 110.675 81.4688C110.656 71.4017 102.52 63.2691 92.456 63.25Z" fill="white"/>
</svg>
