<svg width="200" height="180" viewBox="0 0 200 180" fill="none" xmlns="http://www.w3.org/2000/svg">
<rect width="200" height="180" fill="#8592AD"/>
<path fill-rule="evenodd" clip-rule="evenodd" d="M63.504 87.8945C65.1466 89.3104 67.5786 89.3094 69.22 87.892L100.283 61.0674L132.206 88.6265C133.848 90.0443 136.282 90.0443 137.924 88.6265L139.875 86.942L103.143 55.2248C101.5 53.8066 99.0663 53.8066 97.4239 55.2248L61.5458 86.2064L63.504 87.8945ZM103.793 77.2293L114.048 86.1329L125.663 96.2115C126.621 97.0425 127.171 98.248 127.171 99.5159V120.125C127.171 122.541 125.212 124.5 122.796 124.5H110.69V102.643C110.69 100.227 108.731 98.2685 106.315 98.2685H95.5268C93.1106 98.2685 91.1518 100.227 91.1518 102.643V124.5H79.0458C76.6296 124.5 74.6708 122.541 74.6708 120.125V99.5159C74.6708 98.248 75.2209 97.0425 76.1785 96.2115L87.7933 86.1329L98.0578 77.2282C99.7032 75.8007 102.148 75.8012 103.793 77.2293Z" fill="white"/>
</svg>
