<svg width="200" height="180" viewBox="0 0 200 180" fill="none" xmlns="http://www.w3.org/2000/svg">
<rect width="200" height="180" fill="#8592AD"/>
<path fill-rule="evenodd" clip-rule="evenodd" d="M135.5 92.6191C135.5 94.3547 134.474 95.9263 132.885 96.6245L129.149 98.2659C128.659 99.8823 128.035 101.429 127.278 102.924L129.535 108.686C130.168 110.304 129.784 112.144 128.556 113.373L124.094 117.84C122.866 119.07 121.027 119.456 119.408 118.824L113.482 116.51C112.196 117.131 110.847 117.662 109.466 118.098L107.799 121.899C107.101 123.489 105.529 124.516 103.792 124.516H97.4748C95.7351 124.516 94.1607 123.485 93.4649 121.891L91.8518 118.194C90.3309 117.732 88.8641 117.166 87.4577 116.485L81.2219 118.922C79.6036 119.554 77.7645 119.169 76.5359 117.94L72.0752 113.48C70.8467 112.251 70.4615 110.412 71.0936 108.794L73.5309 102.555C72.8691 101.174 72.3059 99.7391 71.8509 98.2659L68.1151 96.6245C66.526 95.9263 65.5 94.3547 65.5 92.6191V86.2976C65.5 84.5606 66.5276 82.9881 68.1184 82.2907L71.8795 80.6418C72.4364 78.8536 73.1618 77.1259 74.0241 75.5L72.2578 70.9742C71.626 69.3552 72.0123 67.5157 73.2422 66.2877L77.7109 61.8256C78.9392 60.5992 80.7763 60.2149 82.3932 60.8461L87.1491 62.7027C88.6445 61.9582 90.2195 61.3218 91.855 60.8318L93.4689 57.1276C94.1641 55.5318 95.7391 54.5 97.4797 54.5H103.796C105.532 54.5 107.104 55.527 107.802 57.1171L109.47 60.9177C111.076 61.43 112.635 62.0727 114.109 62.8268L118.949 60.9384C120.566 60.3072 122.404 60.6926 123.632 61.9206L128.094 66.3817C129.322 67.6106 129.707 69.4503 129.074 71.0688L127.186 75.8977C127.95 77.4186 128.611 78.9968 129.12 80.6418L132.882 82.2907C134.472 82.9881 135.5 84.5606 135.5 86.2976V92.6191ZM118 89.5C118 99.165 110.165 107 100.5 107C90.835 107 83 99.165 83 89.5C83 79.835 90.835 72 100.5 72C110.165 72 118 79.835 118 89.5Z" fill="white"/>
</svg>
