<svg width="190" height="230" viewBox="0 0 190 230" fill="none" xmlns="http://www.w3.org/2000/svg">
<g filter="url(#filter0_d)">
<rect x="4" y="3" width="180" height="220" fill="white"/>
<rect x="30" y="58" width="27" height="27" fill="#EDEDED"/>
<rect x="64" y="58" width="27" height="27" fill="#EDEDED"/>
<rect x="98" y="58" width="27" height="27" fill="#EDEDED"/>
<rect x="132" y="58" width="27" height="27" fill="#EDEDED"/>
<rect x="30" y="128" width="27" height="27" fill="#EDEDED"/>
<rect x="64" y="128" width="27" height="27" fill="#EDEDED"/>
<rect x="98" y="128" width="27" height="27" fill="#EDEDED"/>
<rect x="132" y="128" width="27" height="27" fill="#EDEDED"/>
<rect x="30" y="93" width="27" height="27" fill="#EDEDED"/>
<rect x="64" y="93" width="27" height="27" fill="#EDEDED"/>
<rect x="98" y="93" width="27" height="27" fill="#EDEDED"/>
<rect x="132" y="93" width="27" height="27" fill="#EDEDED"/>
<rect x="30" y="163" width="27" height="27" fill="#EDEDED"/>
<rect x="64" y="163" width="27" height="27" fill="#EDEDED"/>
<rect x="98" y="163" width="27" height="27" fill="#EDEDED"/>
<rect x="132" y="163" width="27" height="27" fill="#EDEDED"/>
<path d="M23.8506 27.0469L27.1045 35.168L30.3584 27.0469H32.0605V37H30.748V33.124L30.8711 28.9404L27.6035 37H26.5986L23.3379 28.9609L23.4678 33.124V37H22.1553V27.0469H23.8506ZM33.8447 33.2334C33.8447 32.5088 33.986 31.8571 34.2686 31.2783C34.5557 30.6995 34.9521 30.2529 35.458 29.9385C35.9684 29.624 36.5495 29.4668 37.2012 29.4668C38.2083 29.4668 39.0218 29.8154 39.6416 30.5127C40.266 31.21 40.5781 32.1374 40.5781 33.2949V33.3838C40.5781 34.1038 40.4391 34.751 40.1611 35.3252C39.8877 35.8949 39.4935 36.3392 38.9785 36.6582C38.4681 36.9772 37.8802 37.1367 37.2148 37.1367C36.2122 37.1367 35.3988 36.7881 34.7744 36.0908C34.1546 35.3936 33.8447 34.4707 33.8447 33.3223V33.2334ZM35.1162 33.3838C35.1162 34.2041 35.3053 34.8626 35.6836 35.3594C36.0664 35.8561 36.5768 36.1045 37.2148 36.1045C37.8574 36.1045 38.3678 35.8538 38.7461 35.3525C39.1243 34.8467 39.3135 34.1403 39.3135 33.2334C39.3135 32.4222 39.1198 31.766 38.7324 31.2646C38.3496 30.7588 37.8392 30.5059 37.2012 30.5059C36.5768 30.5059 36.0732 30.7542 35.6904 31.251C35.3076 31.7477 35.1162 32.4587 35.1162 33.3838ZM46.4707 35.0381C46.4707 34.6963 46.3408 34.432 46.0811 34.2451C45.8258 34.0537 45.377 33.8896 44.7344 33.7529C44.0964 33.6162 43.5882 33.4521 43.21 33.2607C42.8363 33.0693 42.5583 32.8415 42.376 32.5771C42.1982 32.3128 42.1094 31.9984 42.1094 31.6338C42.1094 31.0277 42.3646 30.515 42.875 30.0957C43.39 29.6764 44.0462 29.4668 44.8438 29.4668C45.6823 29.4668 46.3613 29.6833 46.8809 30.1162C47.4049 30.5492 47.667 31.1029 47.667 31.7773H46.3955C46.3955 31.431 46.2474 31.1325 45.9512 30.8818C45.6595 30.6312 45.2904 30.5059 44.8438 30.5059C44.3835 30.5059 44.0234 30.6061 43.7637 30.8066C43.5039 31.0072 43.374 31.2692 43.374 31.5928C43.374 31.8981 43.4948 32.1283 43.7363 32.2832C43.9779 32.4382 44.4131 32.5863 45.042 32.7275C45.6755 32.8688 46.1882 33.0374 46.5801 33.2334C46.972 33.4294 47.2614 33.6663 47.4482 33.9443C47.6396 34.2178 47.7354 34.5527 47.7354 34.9492C47.7354 35.61 47.471 36.141 46.9424 36.542C46.4137 36.9385 45.7279 37.1367 44.8848 37.1367C44.2923 37.1367 43.7682 37.0319 43.3125 36.8223C42.8568 36.6126 42.499 36.321 42.2393 35.9473C41.984 35.569 41.8564 35.1611 41.8564 34.7236H43.1211C43.1439 35.1475 43.3125 35.4847 43.627 35.7354C43.946 35.9814 44.3652 36.1045 44.8848 36.1045C45.3633 36.1045 45.7461 36.0088 46.0332 35.8174C46.3249 35.6214 46.4707 35.3617 46.4707 35.0381ZM53.9492 37C53.8763 36.8542 53.8171 36.5944 53.7715 36.2207C53.1836 36.8314 52.4818 37.1367 51.666 37.1367C50.9368 37.1367 50.3376 36.9316 49.8682 36.5215C49.4033 36.1068 49.1709 35.5827 49.1709 34.9492C49.1709 34.179 49.4626 33.582 50.0459 33.1582C50.6338 32.7298 51.4587 32.5156 52.5205 32.5156H53.751V31.9346C53.751 31.4925 53.6188 31.1416 53.3545 30.8818C53.0902 30.6175 52.7005 30.4854 52.1855 30.4854C51.7344 30.4854 51.3561 30.5993 51.0508 30.8271C50.7454 31.055 50.5928 31.3307 50.5928 31.6543H49.3213C49.3213 31.2852 49.4512 30.9297 49.7109 30.5879C49.9753 30.2415 50.3307 29.9681 50.7773 29.7676C51.2285 29.5671 51.723 29.4668 52.2607 29.4668C53.113 29.4668 53.7806 29.681 54.2637 30.1094C54.7467 30.5332 54.9974 31.1188 55.0156 31.8662V35.2705C55.0156 35.9495 55.1022 36.4896 55.2754 36.8906V37H53.9492ZM51.8506 36.0361C52.2471 36.0361 52.623 35.9336 52.9785 35.7285C53.334 35.5234 53.5915 35.2568 53.751 34.9287V33.4111H52.7598C51.2103 33.4111 50.4355 33.8646 50.4355 34.7715C50.4355 35.168 50.5677 35.4779 50.832 35.7012C51.0964 35.9245 51.4359 36.0361 51.8506 36.0361ZM58.3721 37H57.1074V29.6035H58.3721V37ZM57.0049 27.6416C57.0049 27.4365 57.0664 27.2633 57.1895 27.1221C57.3171 26.9808 57.5039 26.9102 57.75 26.9102C57.9961 26.9102 58.1829 26.9808 58.3105 27.1221C58.4382 27.2633 58.502 27.4365 58.502 27.6416C58.502 27.8467 58.4382 28.0176 58.3105 28.1543C58.1829 28.291 57.9961 28.3594 57.75 28.3594C57.5039 28.3594 57.3171 28.291 57.1895 28.1543C57.0664 28.0176 57.0049 27.8467 57.0049 27.6416ZM63.3691 36.1045C63.8203 36.1045 64.2145 35.9678 64.5518 35.6943C64.889 35.4209 65.0758 35.0791 65.1123 34.6689H66.3086C66.2858 35.0928 66.14 35.4961 65.8711 35.8789C65.6022 36.2617 65.2422 36.5671 64.791 36.7949C64.3444 37.0228 63.8704 37.1367 63.3691 37.1367C62.362 37.1367 61.5599 36.8018 60.9629 36.1318C60.3704 35.4574 60.0742 34.5368 60.0742 33.3701V33.1582C60.0742 32.4382 60.2064 31.7979 60.4707 31.2373C60.735 30.6768 61.1133 30.2415 61.6055 29.9316C62.1022 29.6217 62.6878 29.4668 63.3623 29.4668C64.1917 29.4668 64.8799 29.7152 65.4268 30.2119C65.9782 30.7087 66.2721 31.3535 66.3086 32.1465H65.1123C65.0758 31.668 64.8936 31.276 64.5654 30.9707C64.2419 30.6608 63.8408 30.5059 63.3623 30.5059C62.7197 30.5059 62.2207 30.7383 61.8652 31.2031C61.5143 31.6634 61.3389 32.3311 61.3389 33.2061V33.4453C61.3389 34.2975 61.5143 34.9538 61.8652 35.4141C62.2161 35.8743 62.7174 36.1045 63.3691 36.1045Z" fill="#383838"/>
<path d="M12 4H176V2H12V4ZM183 11V215H185V11H183ZM176 222H12V224H176V222ZM5 215V11H3V215H5ZM12 222C8.13401 222 5 218.866 5 215H3C3 219.971 7.02944 224 12 224V222ZM183 215C183 218.866 179.866 222 176 222V224C180.971 224 185 219.971 185 215H183ZM176 4C179.866 4 183 7.13401 183 11H185C185 6.02944 180.971 2 176 2V4ZM12 2C7.02944 2 3 6.02944 3 11H5C5 7.13401 8.13401 4 12 4V2Z" fill="#EDEDED"/>
</g>
<defs>
<filter id="filter0_d" x="0" y="0" width="190" height="230" filterUnits="userSpaceOnUse" color-interpolation-filters="sRGB">
<feFlood flood-opacity="0" result="BackgroundImageFix"/>
<feColorMatrix in="SourceAlpha" type="matrix" values="0 0 0 0 0 0 0 0 0 0 0 0 0 0 0 0 0 0 127 0"/>
<feOffset dx="1" dy="2"/>
<feGaussianBlur stdDeviation="2.5"/>
<feColorMatrix type="matrix" values="0 0 0 0 0 0 0 0 0 0 0 0 0 0 0 0 0 0 0.1 0"/>
<feBlend mode="normal" in2="BackgroundImageFix" result="effect1_dropShadow"/>
<feBlend mode="normal" in="SourceGraphic" in2="effect1_dropShadow" result="shape"/>
</filter>
</defs>
</svg>
