<svg xmlns="http://www.w3.org/2000/svg" viewBox="0 0 200 180">
  <rect width="200" height="180" fill="#fff" stroke="#bdbdbd" stroke-width="1"/>
  <rect x="57" y="37" width="89" height="110" fill="#000"/>
  <rect x="124" y="35" width="23" height="22" fill="#000"/>
  <path d="M148 57L124 34H148V57Z" fill="#fff"/>
  <path d="M119.121 96.5234C119.121 95.8594 118.887 95.3516 118.418 95C117.949 94.6406 117.105 94.2656 115.887 93.875C114.668 93.4766 113.703 93.0859 112.992 92.7031C111.055 91.6562 110.086 90.2461 110.086 88.4727C110.086 87.5508 110.344 86.7305 110.859 86.0117C111.383 85.2852 112.129 84.7188 113.098 84.3125C114.074 83.9062 115.168 83.7031 116.379 83.7031C117.598 83.7031 118.684 83.9258 119.637 84.3711C120.59 84.8086 121.328 85.4297 121.852 86.2344C122.383 87.0391 122.648 87.9531 122.648 88.9766H119.133C119.133 88.1953 118.887 87.5898 118.395 87.1602C117.902 86.7227 117.211 86.5039 116.32 86.5039C115.461 86.5039 114.793 86.6875 114.316 87.0547C113.84 87.4141 113.602 87.8906 113.602 88.4844C113.602 89.0391 113.879 89.5039 114.434 89.8789C114.996 90.2539 115.82 90.6055 116.906 90.9336C118.906 91.5352 120.363 92.2812 121.277 93.1719C122.191 94.0625 122.648 95.1719 122.648 96.5C122.648 97.9766 122.09 99.1367 120.973 99.9805C119.855 100.816 118.352 101.234 116.461 101.234C115.148 101.234 113.953 100.996 112.875 100.52C111.797 100.035 110.973 99.375 110.402 98.5391C109.84 97.7031 109.559 96.7344 109.559 95.6328H113.086C113.086 97.5156 114.211 98.457 116.461 98.457C117.297 98.457 117.949 98.2891 118.418 97.9531C118.887 97.6094 119.121 97.1328 119.121 96.5234Z" fill="#000"/>
  <path d="M99.7812 98.1758H107.246V101H96.2656V83.9375H99.7812V98.1758Z" fill="#000"/>
  <path d="M86.1133 89.8203L89.3125 83.9375H93.3555L88.3867 92.3984L93.4844 101H89.3945L86.1133 95.0234L82.832 101H78.7422L83.8398 92.3984L78.8711 83.9375H82.9141L86.1133 89.8203Z" fill="#000"/>
</svg> 