<svg width="200" height="200" viewBox="0 0 200 200" fill="none" xmlns="http://www.w3.org/2000/svg">
<path d="M95.2944 73.82C98.2941 71.2177 102.752 71.2185 105.75 73.8219L124.447 90.0544L145.622 108.428C147.367 109.943 148.37 112.141 148.37 114.452V152.024C148.37 156.429 144.799 160 140.394 160H118.324V120.154C118.324 115.749 114.753 112.178 110.348 112.178H90.6802C86.2754 112.179 82.7046 115.749 82.7046 120.154V160H60.6343C56.2295 159.999 52.6588 156.429 52.6587 152.024V114.452C52.6588 112.14 53.662 109.943 55.4077 108.428L76.5815 90.0544L95.2944 73.82ZM94.1392 41.7741C97.1334 39.1885 101.571 39.1877 104.565 41.7731L171.531 99.5964L167.973 102.668C164.979 105.252 160.543 105.252 157.549 102.668L99.3521 52.4255L42.7212 101.328C39.7289 103.912 35.2958 103.914 32.3013 101.333L28.731 98.2555L94.1392 41.7741Z" fill="black"/>
</svg>
