<svg width="200" height="200" viewBox="0 0 200 200" fill="none" xmlns="http://www.w3.org/2000/svg">
<path d="M165 163H35V33H165V163ZM62.5938 122.062C58.3998 122.062 55 125.462 55 129.656C55 133.85 58.3998 137.25 62.5938 137.25C66.7877 137.25 70.1875 133.85 70.1875 129.656C70.1875 125.462 66.7877 122.062 62.5938 122.062ZM83.9688 122.062C79.7748 122.062 76.375 125.462 76.375 129.656C76.375 133.85 79.7748 137.25 83.9688 137.25C88.1627 137.25 91.5625 133.85 91.5625 129.656C91.5625 125.462 88.1627 122.062 83.9688 122.062ZM109.281 122.062C105.087 122.063 101.688 125.462 101.688 129.656C101.688 133.85 105.087 137.25 109.281 137.25H137.406C141.6 137.25 145 133.85 145 129.656C145 125.462 141.6 122.063 137.406 122.062H109.281ZM55 108H145V90H55V108ZM55 60.75V78.75H145V60.75H55Z" fill="black"/>
</svg>
