<svg width="200" height="200" viewBox="0 0 200 200" fill="none" xmlns="http://www.w3.org/2000/svg">
<path d="M157.671 62.6201C159.892 64.1043 162.833 66.1077 165.924 68.3184C169.143 70.6206 172.471 73.1088 175.301 75.4463C177.326 77.1187 178.908 78.5672 180 79.7119V126H22.9658C29.3243 118.943 39.9064 109.109 49.7393 100.356C55.3893 95.3273 60.6709 90.7608 64.541 87.4502C65.8557 86.3256 67.0069 85.3469 67.9531 84.5449L108.989 103.449L112.674 105.146L115.621 102.36L157.671 62.6201ZM180 63.8379C177.673 62.0232 175.231 60.2204 172.904 58.5566C169.559 56.1643 166.399 54.0173 164.078 52.4697C162.916 51.6949 161.961 51.0677 161.294 50.6328C160.96 50.4154 160.699 50.2461 160.519 50.1299C160.429 50.0719 160.359 50.0268 160.312 49.9961C160.288 49.9807 160.269 49.9682 160.256 49.96C160.25 49.9559 160.245 49.9525 160.241 49.9502C160.239 49.949 160.237 49.9489 160.236 49.9482L160.235 49.9473C160.235 49.947 160.234 49.9464 157 55L160.234 49.9463L156.286 47.4189L152.879 50.6396L110.326 90.8535L69.5107 72.0508L66.0645 70.4629L63.1533 72.8955L66.0264 76.335C63.2609 73.0248 63.1566 72.9008 63.1523 72.8965L63.1504 72.8975C63.149 72.8986 63.147 72.9003 63.1445 72.9023C63.1393 72.9067 63.132 72.9136 63.1221 72.9219C63.1021 72.9385 63.0726 72.9629 63.0342 72.9951C62.9572 73.0596 62.8434 73.155 62.6953 73.2793C62.3992 73.5279 61.965 73.893 61.4092 74.3623C60.297 75.3013 58.6966 76.6576 56.7402 78.3311C52.8291 81.6767 47.4857 86.2977 41.7607 91.3936C34.5435 97.8177 26.5179 105.175 20 111.729V27H180V63.8379Z" fill="black"/>
<rect x="100" y="140" width="80" height="30" rx="15" fill="black"/>
<rect x="20" y="140" width="30" height="30" rx="15" fill="black"/>
<rect x="57" y="141" width="30" height="30" rx="15" fill="black"/>
</svg>
