<svg width="200" height="200" viewBox="0 0 200 200" fill="none" xmlns="http://www.w3.org/2000/svg">
<path d="M106.732 34C110.03 34.0001 113.016 35.9507 114.341 38.9707L117.508 46.1885C120.56 47.1614 123.521 48.3823 126.319 49.8145L135.511 46.2285C138.583 45.0297 142.075 45.7616 144.407 48.0938L152.88 56.5664C155.213 58.9003 155.944 62.394 154.742 65.4678L151.155 74.6396C152.606 77.5281 153.863 80.5253 154.83 83.6494L161.973 86.7812C164.994 88.1058 166.946 91.0918 166.946 94.3906V106.396C166.946 109.693 164.997 112.678 161.979 114.004L154.884 117.121C153.953 120.191 152.769 123.129 151.331 125.969L155.616 136.912C156.82 139.985 156.09 143.479 153.758 145.813L145.284 154.298C142.952 156.633 139.458 157.366 136.384 156.166L125.129 151.772C122.688 152.951 120.125 153.959 117.502 154.787L114.335 162.006C113.01 165.026 110.024 166.976 106.727 166.977H94.7275C91.4234 166.977 88.4327 165.019 87.1113 161.99L84.0479 154.969C81.1595 154.093 78.374 153.017 75.7031 151.724L63.8594 156.352C60.786 157.553 57.2933 156.821 54.96 154.488L46.4873 146.016C44.1545 143.683 43.4236 140.19 44.624 137.117L49.2529 125.268C47.996 122.645 46.9257 119.919 46.0615 117.121L38.9668 114.004C35.9488 112.678 34 109.693 34 106.396V94.3906C34.0001 91.0919 35.9516 88.1058 38.9727 86.7812L46.1162 83.6494C47.1737 80.2532 48.5518 76.9718 50.1895 73.8838L46.835 65.2881C45.635 62.2133 46.3685 58.7199 48.7041 56.3877L57.1914 47.9131C59.5242 45.5838 63.0132 44.8539 66.084 46.0527L75.1162 49.5791C77.9563 48.1651 80.9477 46.956 84.0537 46.0254L87.1191 38.9902C88.4395 35.9596 91.4315 34 94.7373 34H106.732ZM100.473 67.2363C82.1169 67.2365 67.2365 82.1169 67.2363 100.473C67.2363 118.829 82.1168 133.71 100.473 133.71C118.829 133.71 133.709 118.829 133.709 100.473C133.709 82.1168 118.829 67.2363 100.473 67.2363Z" fill="black"/>
</svg>
