<svg width="190" height="230" viewBox="0 0 190 230" fill="none" xmlns="http://www.w3.org/2000/svg">
<g filter="url(#filter0_d)">
<rect x="4" y="3" width="180" height="220" fill="white"/>
<rect x="30" y="163" width="27" height="27" fill="#EDEDED"/>
<rect x="64" y="163" width="27" height="27" fill="#EDEDED"/>
<rect x="98" y="127" width="61" height="63" fill="#F7F7F7"/>
<rect x="29" y="127" width="62" height="24" fill="#EDEDED"/>
<path d="M38 102L63.6307 70.9734C64.995 69.3219 67.6006 69.5912 68.5983 71.4868L78.6215 90.5309C79.7881 92.7474 82.9966 92.6429 84.0164 90.3552L97.8205 59.3892C98.7747 57.2487 101.705 56.9799 103.033 58.9111L114.124 75.0447C115.29 76.7394 117.776 76.786 119.003 75.1362L129.65 60.829C130.97 59.0558 133.689 59.27 134.715 61.228L154.5 99" stroke="#CCCCCC" stroke-width="2"/>
<circle cx="65" cy="70" r="4" fill="white" stroke="#CCCCCC" stroke-width="2"/>
<circle cx="100" cy="57" r="4" fill="white" stroke="#CCCCCC" stroke-width="2"/>
<circle cx="81" cy="91" r="4" fill="white" stroke="#CCCCCC" stroke-width="2"/>
<circle cx="117" cy="75" r="4" fill="white" stroke="#CCCCCC" stroke-width="2"/>
<circle cx="132" cy="60" r="4" fill="white" stroke="#CCCCCC" stroke-width="2"/>
<path d="M29.4766 33.8418C29.3535 34.8945 28.9639 35.708 28.3076 36.2822C27.6559 36.8519 26.7878 37.1367 25.7031 37.1367C24.5273 37.1367 23.584 36.7152 22.873 35.8721C22.1667 35.029 21.8135 33.901 21.8135 32.4883V31.5312C21.8135 30.6061 21.9775 29.7926 22.3057 29.0908C22.6383 28.389 23.1077 27.8512 23.7139 27.4775C24.32 27.0993 25.0218 26.9102 25.8193 26.9102C26.8766 26.9102 27.7243 27.2064 28.3623 27.7988C29.0003 28.3867 29.3717 29.2025 29.4766 30.2461H28.1572C28.0433 29.4531 27.7949 28.8789 27.4121 28.5234C27.0339 28.168 26.5029 27.9902 25.8193 27.9902C24.9808 27.9902 24.3223 28.3001 23.8438 28.9199C23.3698 29.5397 23.1328 30.4215 23.1328 31.5654V32.5293C23.1328 33.6094 23.3584 34.4684 23.8096 35.1064C24.2607 35.7445 24.8919 36.0635 25.7031 36.0635C26.4323 36.0635 26.9906 35.8994 27.3779 35.5713C27.7699 35.2386 28.0296 34.6621 28.1572 33.8418H29.4766ZM32.3408 30.499C32.9014 29.8109 33.6305 29.4668 34.5283 29.4668C36.0915 29.4668 36.8799 30.3486 36.8936 32.1123V37H35.6289V32.1055C35.6243 31.5723 35.5013 31.1781 35.2598 30.9229C35.0228 30.6676 34.6514 30.54 34.1455 30.54C33.7354 30.54 33.3753 30.6494 33.0654 30.8682C32.7555 31.0869 32.514 31.374 32.3408 31.7295V37H31.0762V26.5H32.3408V30.499ZM43.3535 37C43.2806 36.8542 43.2214 36.5944 43.1758 36.2207C42.5879 36.8314 41.8861 37.1367 41.0703 37.1367C40.3411 37.1367 39.7419 36.9316 39.2725 36.5215C38.8076 36.1068 38.5752 35.5827 38.5752 34.9492C38.5752 34.179 38.8669 33.582 39.4502 33.1582C40.0381 32.7298 40.863 32.5156 41.9248 32.5156H43.1553V31.9346C43.1553 31.4925 43.0231 31.1416 42.7588 30.8818C42.4945 30.6175 42.1048 30.4854 41.5898 30.4854C41.1387 30.4854 40.7604 30.5993 40.4551 30.8271C40.1497 31.055 39.9971 31.3307 39.9971 31.6543H38.7256C38.7256 31.2852 38.8555 30.9297 39.1152 30.5879C39.3796 30.2415 39.735 29.9681 40.1816 29.7676C40.6328 29.5671 41.1273 29.4668 41.665 29.4668C42.5173 29.4668 43.1849 29.681 43.668 30.1094C44.151 30.5332 44.4017 31.1188 44.4199 31.8662V35.2705C44.4199 35.9495 44.5065 36.4896 44.6797 36.8906V37H43.3535ZM41.2549 36.0361C41.6514 36.0361 42.0273 35.9336 42.3828 35.7285C42.7383 35.5234 42.9958 35.2568 43.1553 34.9287V33.4111H42.1641C40.6146 33.4111 39.8398 33.8646 39.8398 34.7715C39.8398 35.168 39.972 35.4779 40.2363 35.7012C40.5007 35.9245 40.8402 36.0361 41.2549 36.0361ZM49.9775 30.7383C49.7861 30.7064 49.5788 30.6904 49.3555 30.6904C48.526 30.6904 47.9632 31.0436 47.667 31.75V37H46.4023V29.6035H47.6328L47.6533 30.458C48.068 29.7972 48.6559 29.4668 49.417 29.4668C49.6631 29.4668 49.8499 29.4987 49.9775 29.5625V30.7383ZM53.2041 27.8125V29.6035H54.585V30.5811H53.2041V35.168C53.2041 35.4642 53.2656 35.6875 53.3887 35.8379C53.5117 35.9837 53.7214 36.0566 54.0176 36.0566C54.1634 36.0566 54.3639 36.0293 54.6191 35.9746V37C54.2865 37.0911 53.9629 37.1367 53.6484 37.1367C53.0833 37.1367 52.6572 36.9658 52.3701 36.624C52.083 36.2822 51.9395 35.7969 51.9395 35.168V30.5811H50.5928V29.6035H51.9395V27.8125H53.2041Z" fill="#383838"/>
<path d="M12 4H176V2H12V4ZM183 11V215H185V11H183ZM176 222H12V224H176V222ZM5 215V11H3V215H5ZM12 222C8.13401 222 5 218.866 5 215H3C3 219.971 7.02944 224 12 224V222ZM183 215C183 218.866 179.866 222 176 222V224C180.971 224 185 219.971 185 215H183ZM176 4C179.866 4 183 7.13401 183 11H185C185 6.02944 180.971 2 176 2V4ZM12 2C7.02944 2 3 6.02944 3 11H5C5 7.13401 8.13401 4 12 4V2Z" fill="#EDEDED"/>
</g>
<defs>
<filter id="filter0_d" x="0" y="0" width="190" height="230" filterUnits="userSpaceOnUse" color-interpolation-filters="sRGB">
<feFlood flood-opacity="0" result="BackgroundImageFix"/>
<feColorMatrix in="SourceAlpha" type="matrix" values="0 0 0 0 0 0 0 0 0 0 0 0 0 0 0 0 0 0 127 0"/>
<feOffset dx="1" dy="2"/>
<feGaussianBlur stdDeviation="2.5"/>
<feColorMatrix type="matrix" values="0 0 0 0 0 0 0 0 0 0 0 0 0 0 0 0 0 0 0.1 0"/>
<feBlend mode="normal" in2="BackgroundImageFix" result="effect1_dropShadow"/>
<feBlend mode="normal" in="SourceGraphic" in2="effect1_dropShadow" result="shape"/>
</filter>
</defs>
</svg>
