<svg width="190" height="230" viewBox="0 0 190 230" fill="none" xmlns="http://www.w3.org/2000/svg">
<g filter="url(#filter0_d)">
<rect x="4" y="3" width="180" height="220" fill="white"/>
<rect x="30" y="128" width="27" height="27" fill="#EDEDED"/>
<rect x="64" y="128" width="27" height="27" fill="#EDEDED"/>
<rect x="98" y="128" width="27" height="27" fill="#EDEDED"/>
<rect x="132" y="128" width="27" height="27" fill="#EDEDED"/>
<rect x="30" y="163" width="27" height="27" fill="#EDEDED"/>
<rect x="64" y="163" width="27" height="27" fill="#EDEDED"/>
<rect x="98" y="163" width="27" height="27" fill="#EDEDED"/>
<rect x="132" y="163" width="27" height="27" fill="#EDEDED"/>
<rect x="29" y="57" width="130" height="62" fill="#F7F7F7"/>
<path d="M22.1553 37V27.0469H24.9648C25.8307 27.0469 26.5964 27.2383 27.2617 27.6211C27.9271 28.0039 28.4398 28.5485 28.7998 29.2549C29.1644 29.9613 29.349 30.7725 29.3535 31.6885V32.3242C29.3535 33.263 29.1712 34.0856 28.8066 34.792C28.4466 35.4984 27.9294 36.0407 27.2549 36.4189C26.585 36.7972 25.8034 36.9909 24.9102 37H22.1553ZM23.4678 28.127V35.9268H24.8486C25.8604 35.9268 26.6465 35.6123 27.207 34.9834C27.7721 34.3545 28.0547 33.459 28.0547 32.2969V31.7158C28.0547 30.5856 27.7881 29.7083 27.2549 29.084C26.7262 28.4551 25.9743 28.1361 24.999 28.127H23.4678ZM34.2139 37.1367C33.2113 37.1367 32.3955 36.8086 31.7666 36.1523C31.1377 35.4915 30.8232 34.6097 30.8232 33.5068V33.2744C30.8232 32.5407 30.9622 31.8867 31.2402 31.3125C31.5228 30.7337 31.9147 30.2826 32.416 29.959C32.9219 29.6309 33.4688 29.4668 34.0566 29.4668C35.0182 29.4668 35.7656 29.7835 36.2988 30.417C36.832 31.0505 37.0986 31.9574 37.0986 33.1377V33.6641H32.0879C32.1061 34.3932 32.318 34.9834 32.7236 35.4346C33.1338 35.8812 33.6533 36.1045 34.2822 36.1045C34.7288 36.1045 35.1071 36.0133 35.417 35.8311C35.7269 35.6488 35.998 35.4072 36.2305 35.1064L37.0029 35.708C36.3831 36.6605 35.4535 37.1367 34.2139 37.1367ZM34.0566 30.5059C33.5462 30.5059 33.1178 30.6927 32.7715 31.0664C32.4251 31.4355 32.2109 31.9551 32.1289 32.625H35.834V32.5293C35.7975 31.8867 35.6243 31.39 35.3145 31.0391C35.0046 30.6836 34.5853 30.5059 34.0566 30.5059ZM40.2842 27.8125V29.6035H41.665V30.5811H40.2842V35.168C40.2842 35.4642 40.3457 35.6875 40.4688 35.8379C40.5918 35.9837 40.8014 36.0566 41.0977 36.0566C41.2435 36.0566 41.444 36.0293 41.6992 35.9746V37C41.3665 37.0911 41.043 37.1367 40.7285 37.1367C40.1634 37.1367 39.7373 36.9658 39.4502 36.624C39.1631 36.2822 39.0195 35.7969 39.0195 35.168V30.5811H37.6729V29.6035H39.0195V27.8125H40.2842ZM47.7148 37C47.6419 36.8542 47.5827 36.5944 47.5371 36.2207C46.9492 36.8314 46.2474 37.1367 45.4316 37.1367C44.7025 37.1367 44.1032 36.9316 43.6338 36.5215C43.1689 36.1068 42.9365 35.5827 42.9365 34.9492C42.9365 34.179 43.2282 33.582 43.8115 33.1582C44.3994 32.7298 45.2243 32.5156 46.2861 32.5156H47.5166V31.9346C47.5166 31.4925 47.3844 31.1416 47.1201 30.8818C46.8558 30.6175 46.4661 30.4854 45.9512 30.4854C45.5 30.4854 45.1217 30.5993 44.8164 30.8271C44.5111 31.055 44.3584 31.3307 44.3584 31.6543H43.0869C43.0869 31.2852 43.2168 30.9297 43.4766 30.5879C43.7409 30.2415 44.0964 29.9681 44.543 29.7676C44.9941 29.5671 45.4886 29.4668 46.0264 29.4668C46.8786 29.4668 47.5462 29.681 48.0293 30.1094C48.5124 30.5332 48.763 31.1188 48.7812 31.8662V35.2705C48.7812 35.9495 48.8678 36.4896 49.041 36.8906V37H47.7148ZM45.6162 36.0361C46.0127 36.0361 46.3887 35.9336 46.7441 35.7285C47.0996 35.5234 47.3571 35.2568 47.5166 34.9287V33.4111H46.5254C44.9759 33.4111 44.2012 33.8646 44.2012 34.7715C44.2012 35.168 44.3333 35.4779 44.5977 35.7012C44.862 35.9245 45.2015 36.0361 45.6162 36.0361ZM52.1377 37H50.873V29.6035H52.1377V37ZM50.7705 27.6416C50.7705 27.4365 50.832 27.2633 50.9551 27.1221C51.0827 26.9808 51.2695 26.9102 51.5156 26.9102C51.7617 26.9102 51.9486 26.9808 52.0762 27.1221C52.2038 27.2633 52.2676 27.4365 52.2676 27.6416C52.2676 27.8467 52.2038 28.0176 52.0762 28.1543C51.9486 28.291 51.7617 28.3594 51.5156 28.3594C51.2695 28.3594 51.0827 28.291 50.9551 28.1543C50.832 28.0176 50.7705 27.8467 50.7705 27.6416ZM55.542 37H54.2773V26.5H55.542V37Z" fill="#383838"/>
<path d="M12 4H176V2H12V4ZM183 11V215H185V11H183ZM176 222H12V224H176V222ZM5 215V11H3V215H5ZM12 222C8.13401 222 5 218.866 5 215H3C3 219.971 7.02944 224 12 224V222ZM183 215C183 218.866 179.866 222 176 222V224C180.971 224 185 219.971 185 215H183ZM176 4C179.866 4 183 7.13401 183 11H185C185 6.02944 180.971 2 176 2V4ZM12 2C7.02944 2 3 6.02944 3 11H5C5 7.13401 8.13401 4 12 4V2Z" fill="#EDEDED"/>
</g>
<defs>
<filter id="filter0_d" x="0" y="0" width="190" height="230" filterUnits="userSpaceOnUse" color-interpolation-filters="sRGB">
<feFlood flood-opacity="0" result="BackgroundImageFix"/>
<feColorMatrix in="SourceAlpha" type="matrix" values="0 0 0 0 0 0 0 0 0 0 0 0 0 0 0 0 0 0 127 0"/>
<feOffset dx="1" dy="2"/>
<feGaussianBlur stdDeviation="2.5"/>
<feColorMatrix type="matrix" values="0 0 0 0 0 0 0 0 0 0 0 0 0 0 0 0 0 0 0.1 0"/>
<feBlend mode="normal" in2="BackgroundImageFix" result="effect1_dropShadow"/>
<feBlend mode="normal" in="SourceGraphic" in2="effect1_dropShadow" result="shape"/>
</filter>
</defs>
</svg>
