<svg width="190" height="230" viewBox="0 0 190 230" fill="none" xmlns="http://www.w3.org/2000/svg">
<g filter="url(#filter0_d)">
<rect x="4" y="3" width="180" height="220" fill="white"/>
<rect x="21" y="58" width="146" height="24" fill="#EDEDED"/>
<rect x="21" y="130" width="146" height="24" fill="#EDEDED"/>
<rect x="21" y="94" width="146" height="24" fill="#EDEDED"/>
<rect x="21" y="166" width="146" height="24" fill="#EDEDED"/>
<path d="M23.4746 35.9268H28.1914V37H22.1553V27.0469H23.4746V35.9268ZM30.8643 37H29.5996V29.6035H30.8643V37ZM29.4971 27.6416C29.4971 27.4365 29.5586 27.2633 29.6816 27.1221C29.8092 26.9808 29.9961 26.9102 30.2422 26.9102C30.4883 26.9102 30.6751 26.9808 30.8027 27.1221C30.9303 27.2633 30.9941 27.4365 30.9941 27.6416C30.9941 27.8467 30.9303 28.0176 30.8027 28.1543C30.6751 28.291 30.4883 28.3594 30.2422 28.3594C29.9961 28.3594 29.8092 28.291 29.6816 28.1543C29.5586 28.0176 29.4971 27.8467 29.4971 27.6416ZM37.2012 35.0381C37.2012 34.6963 37.0713 34.432 36.8115 34.2451C36.5563 34.0537 36.1074 33.8896 35.4648 33.7529C34.8268 33.6162 34.3187 33.4521 33.9404 33.2607C33.5667 33.0693 33.2887 32.8415 33.1064 32.5771C32.9287 32.3128 32.8398 31.9984 32.8398 31.6338C32.8398 31.0277 33.0951 30.515 33.6055 30.0957C34.1204 29.6764 34.7767 29.4668 35.5742 29.4668C36.4128 29.4668 37.0918 29.6833 37.6113 30.1162C38.1354 30.5492 38.3975 31.1029 38.3975 31.7773H37.126C37.126 31.431 36.9779 31.1325 36.6816 30.8818C36.39 30.6312 36.0208 30.5059 35.5742 30.5059C35.1139 30.5059 34.7539 30.6061 34.4941 30.8066C34.2344 31.0072 34.1045 31.2692 34.1045 31.5928C34.1045 31.8981 34.2253 32.1283 34.4668 32.2832C34.7083 32.4382 35.1436 32.5863 35.7725 32.7275C36.4059 32.8688 36.9186 33.0374 37.3105 33.2334C37.7025 33.4294 37.9919 33.6663 38.1787 33.9443C38.3701 34.2178 38.4658 34.5527 38.4658 34.9492C38.4658 35.61 38.2015 36.141 37.6729 36.542C37.1442 36.9385 36.4583 37.1367 35.6152 37.1367C35.0228 37.1367 34.4987 37.0319 34.043 36.8223C33.5872 36.6126 33.2295 36.321 32.9697 35.9473C32.7145 35.569 32.5869 35.1611 32.5869 34.7236H33.8516C33.8743 35.1475 34.043 35.4847 34.3574 35.7354C34.6764 35.9814 35.0957 36.1045 35.6152 36.1045C36.0938 36.1045 36.4766 36.0088 36.7637 35.8174C37.0553 35.6214 37.2012 35.3617 37.2012 35.0381ZM41.8291 27.8125V29.6035H43.21V30.5811H41.8291V35.168C41.8291 35.4642 41.8906 35.6875 42.0137 35.8379C42.1367 35.9837 42.3464 36.0566 42.6426 36.0566C42.7884 36.0566 42.9889 36.0293 43.2441 35.9746V37C42.9115 37.0911 42.5879 37.1367 42.2734 37.1367C41.7083 37.1367 41.2822 36.9658 40.9951 36.624C40.708 36.2822 40.5645 35.7969 40.5645 35.168V30.5811H39.2178V29.6035H40.5645V27.8125H41.8291Z" fill="#383838"/>
<path d="M12 4H176V2H12V4ZM183 11V215H185V11H183ZM176 222H12V224H176V222ZM5 215V11H3V215H5ZM12 222C8.13401 222 5 218.866 5 215H3C3 219.971 7.02944 224 12 224V222ZM183 215C183 218.866 179.866 222 176 222V224C180.971 224 185 219.971 185 215H183ZM176 4C179.866 4 183 7.13401 183 11H185C185 6.02944 180.971 2 176 2V4ZM12 2C7.02944 2 3 6.02944 3 11H5C5 7.13401 8.13401 4 12 4V2Z" fill="#EDEDED"/>
</g>
<defs>
<filter id="filter0_d" x="0" y="0" width="190" height="230" filterUnits="userSpaceOnUse" color-interpolation-filters="sRGB">
<feFlood flood-opacity="0" result="BackgroundImageFix"/>
<feColorMatrix in="SourceAlpha" type="matrix" values="0 0 0 0 0 0 0 0 0 0 0 0 0 0 0 0 0 0 127 0"/>
<feOffset dx="1" dy="2"/>
<feGaussianBlur stdDeviation="2.5"/>
<feColorMatrix type="matrix" values="0 0 0 0 0 0 0 0 0 0 0 0 0 0 0 0 0 0 0.1 0"/>
<feBlend mode="normal" in2="BackgroundImageFix" result="effect1_dropShadow"/>
<feBlend mode="normal" in="SourceGraphic" in2="effect1_dropShadow" result="shape"/>
</filter>
</defs>
</svg>
