<svg width="190" height="230" viewBox="0 0 190 230" fill="none" xmlns="http://www.w3.org/2000/svg">
<g filter="url(#filter0_d)">
<rect x="4" y="3" width="180" height="220" fill="white"/>
<rect x="30" y="163" width="27" height="27" fill="#EDEDED"/>
<rect x="64" y="163" width="27" height="27" fill="#EDEDED"/>
<rect x="98" y="163" width="27" height="27" fill="#EDEDED"/>
<rect x="132" y="163" width="27" height="27" fill="#EDEDED"/>
<rect x="29" y="52" width="130" height="99" fill="#F7F7F7"/>
<line x1="27.5858" y1="90.5858" x2="68.5858" y2="49.5858" stroke="white" stroke-width="4"/>
<line x1="24.5858" y1="135.586" x2="108.586" y2="51.5858" stroke="white" stroke-width="4"/>
<path d="M29.8284 91L89.3284 150.5" stroke="white" stroke-width="4"/>
<line x1="27.4142" y1="53.5858" x2="124.414" y2="150.586" stroke="white" stroke-width="4"/>
<line x1="93.4142" y1="51.5858" x2="161.414" y2="119.586" stroke="white" stroke-width="4"/>
<line x1="43.5858" y1="152.586" x2="144.586" y2="51.5858" stroke="white" stroke-width="4"/>
<line x1="76.5858" y1="154.586" x2="162.586" y2="68.5858" stroke="white" stroke-width="4"/>
<line x1="101.586" y1="153.586" x2="163.586" y2="91.5858" stroke="white" stroke-width="4"/>
<path fill-rule="evenodd" clip-rule="evenodd" d="M100.233 90.3153C102.542 88.2989 104 85.3337 104 82.028C104 75.9528 99.0751 71.028 93 71.028C86.9249 71.028 82 75.9528 82 82.028C82 85.3337 83.4582 88.2989 85.7665 90.3153L92.1653 100.013C92.5606 100.612 93.4394 100.612 93.8347 100.013L100.233 90.3153Z" fill="#CCCCCC"/>
<circle cx="93" cy="82.028" r="4.125" fill="white"/>
<path d="M23.8506 27.0469L27.1045 35.168L30.3584 27.0469H32.0605V37H30.748V33.124L30.8711 28.9404L27.6035 37H26.5986L23.3379 28.9609L23.4678 33.124V37H22.1553V27.0469H23.8506ZM38.7461 37C38.6732 36.8542 38.6139 36.5944 38.5684 36.2207C37.9805 36.8314 37.2786 37.1367 36.4629 37.1367C35.7337 37.1367 35.1344 36.9316 34.665 36.5215C34.2002 36.1068 33.9678 35.5827 33.9678 34.9492C33.9678 34.179 34.2594 33.582 34.8428 33.1582C35.4307 32.7298 36.2555 32.5156 37.3174 32.5156H38.5479V31.9346C38.5479 31.4925 38.4157 31.1416 38.1514 30.8818C37.887 30.6175 37.4974 30.4854 36.9824 30.4854C36.5312 30.4854 36.153 30.5993 35.8477 30.8271C35.5423 31.055 35.3896 31.3307 35.3896 31.6543H34.1182C34.1182 31.2852 34.248 30.9297 34.5078 30.5879C34.7721 30.2415 35.1276 29.9681 35.5742 29.7676C36.0254 29.5671 36.5199 29.4668 37.0576 29.4668C37.9098 29.4668 38.5775 29.681 39.0605 30.1094C39.5436 30.5332 39.7943 31.1188 39.8125 31.8662V35.2705C39.8125 35.9495 39.8991 36.4896 40.0723 36.8906V37H38.7461ZM36.6475 36.0361C37.0439 36.0361 37.4199 35.9336 37.7754 35.7285C38.1309 35.5234 38.3883 35.2568 38.5479 34.9287V33.4111H37.5566C36.0072 33.4111 35.2324 33.8646 35.2324 34.7715C35.2324 35.168 35.3646 35.4779 35.6289 35.7012C35.8932 35.9245 36.2327 36.0361 36.6475 36.0361ZM48.043 33.3838C48.043 34.5094 47.7855 35.4163 47.2705 36.1045C46.7555 36.7926 46.0583 37.1367 45.1787 37.1367C44.2809 37.1367 43.5745 36.8519 43.0596 36.2822V39.8438H41.7949V29.6035H42.9502L43.0117 30.4238C43.5267 29.7858 44.2422 29.4668 45.1582 29.4668C46.0469 29.4668 46.7487 29.8018 47.2637 30.4717C47.7832 31.1416 48.043 32.0736 48.043 33.2676V33.3838ZM46.7783 33.2402C46.7783 32.4062 46.6006 31.7477 46.2451 31.2646C45.8896 30.7816 45.402 30.54 44.7822 30.54C44.0166 30.54 43.4424 30.8796 43.0596 31.5586V35.0928C43.4378 35.7673 44.0166 36.1045 44.7959 36.1045C45.402 36.1045 45.8828 35.8652 46.2383 35.3867C46.5983 34.9036 46.7783 34.1882 46.7783 33.2402Z" fill="#383838"/>
<path d="M12 4H176V2H12V4ZM183 11V215H185V11H183ZM176 222H12V224H176V222ZM5 215V11H3V215H5ZM12 222C8.13401 222 5 218.866 5 215H3C3 219.971 7.02944 224 12 224V222ZM183 215C183 218.866 179.866 222 176 222V224C180.971 224 185 219.971 185 215H183ZM176 4C179.866 4 183 7.13401 183 11H185C185 6.02944 180.971 2 176 2V4ZM12 2C7.02944 2 3 6.02944 3 11H5C5 7.13401 8.13401 4 12 4V2Z" fill="#EDEDED"/>
</g>
<defs>
<filter id="filter0_d" x="0" y="0" width="190" height="230" filterUnits="userSpaceOnUse" color-interpolation-filters="sRGB">
<feFlood flood-opacity="0" result="BackgroundImageFix"/>
<feColorMatrix in="SourceAlpha" type="matrix" values="0 0 0 0 0 0 0 0 0 0 0 0 0 0 0 0 0 0 127 0"/>
<feOffset dx="1" dy="2"/>
<feGaussianBlur stdDeviation="2.5"/>
<feColorMatrix type="matrix" values="0 0 0 0 0 0 0 0 0 0 0 0 0 0 0 0 0 0 0.1 0"/>
<feBlend mode="normal" in2="BackgroundImageFix" result="effect1_dropShadow"/>
<feBlend mode="normal" in="SourceGraphic" in2="effect1_dropShadow" result="shape"/>
</filter>
</defs>
</svg>
