<svg width="190" height="230" viewBox="0 0 190 230" fill="none" xmlns="http://www.w3.org/2000/svg">
<g filter="url(#filter0_d)">
<rect x="4" y="3" width="180" height="220" fill="white"/>
<rect x="30" y="163" width="27" height="27" fill="#EDEDED"/>
<rect x="64" y="163" width="27" height="27" fill="#EDEDED"/>
<rect x="98" y="163" width="27" height="27" fill="#EDEDED"/>
<rect x="132" y="163" width="27" height="27" fill="#EDEDED"/>
<rect x="29" y="52" width="130" height="99" fill="#F7F7F7"/>
<path d="M23.8506 27.0469L27.1045 35.168L30.3584 27.0469H32.0605V37H30.748V33.124L30.8711 28.9404L27.6035 37H26.5986L23.3379 28.9609L23.4678 33.124V37H22.1553V27.0469H23.8506ZM37.249 37.1367C36.2464 37.1367 35.4307 36.8086 34.8018 36.1523C34.1729 35.4915 33.8584 34.6097 33.8584 33.5068V33.2744C33.8584 32.5407 33.9974 31.8867 34.2754 31.3125C34.5579 30.7337 34.9499 30.2826 35.4512 29.959C35.957 29.6309 36.5039 29.4668 37.0918 29.4668C38.0534 29.4668 38.8008 29.7835 39.334 30.417C39.8672 31.0505 40.1338 31.9574 40.1338 33.1377V33.6641H35.123C35.1413 34.3932 35.3532 34.9834 35.7588 35.4346C36.1689 35.8812 36.6885 36.1045 37.3174 36.1045C37.764 36.1045 38.1423 36.0133 38.4521 35.8311C38.762 35.6488 39.0332 35.4072 39.2656 35.1064L40.0381 35.708C39.4183 36.6605 38.4886 37.1367 37.249 37.1367ZM37.0918 30.5059C36.5814 30.5059 36.153 30.6927 35.8066 31.0664C35.4603 31.4355 35.2461 31.9551 35.1641 32.625H38.8691V32.5293C38.8327 31.8867 38.6595 31.39 38.3496 31.0391C38.0397 30.6836 37.6204 30.5059 37.0918 30.5059ZM41.2959 33.2402C41.2959 32.1055 41.5648 31.194 42.1025 30.5059C42.6403 29.8132 43.3444 29.4668 44.2148 29.4668C45.0807 29.4668 45.7666 29.763 46.2725 30.3555V26.5H47.5371V37H46.375L46.3135 36.207C45.8076 36.8268 45.1035 37.1367 44.2012 37.1367C43.3444 37.1367 42.6449 36.7858 42.1025 36.084C41.5648 35.3822 41.2959 34.4661 41.2959 33.3359V33.2402ZM42.5605 33.3838C42.5605 34.2223 42.7337 34.8786 43.0801 35.3525C43.4264 35.8265 43.9049 36.0635 44.5156 36.0635C45.3177 36.0635 45.9033 35.7035 46.2725 34.9834V31.5859C45.8942 30.8887 45.3132 30.54 44.5293 30.54C43.9095 30.54 43.4264 30.7793 43.0801 31.2578C42.7337 31.7363 42.5605 32.445 42.5605 33.3838ZM50.8799 37H49.6152V29.6035H50.8799V37ZM49.5127 27.6416C49.5127 27.4365 49.5742 27.2633 49.6973 27.1221C49.8249 26.9808 50.0117 26.9102 50.2578 26.9102C50.5039 26.9102 50.6908 26.9808 50.8184 27.1221C50.946 27.2633 51.0098 27.4365 51.0098 27.6416C51.0098 27.8467 50.946 28.0176 50.8184 28.1543C50.6908 28.291 50.5039 28.3594 50.2578 28.3594C50.0117 28.3594 49.8249 28.291 49.6973 28.1543C49.5742 28.0176 49.5127 27.8467 49.5127 27.6416ZM57.4766 37C57.4036 36.8542 57.3444 36.5944 57.2988 36.2207C56.7109 36.8314 56.0091 37.1367 55.1934 37.1367C54.4642 37.1367 53.8649 36.9316 53.3955 36.5215C52.9307 36.1068 52.6982 35.5827 52.6982 34.9492C52.6982 34.179 52.9899 33.582 53.5732 33.1582C54.1611 32.7298 54.986 32.5156 56.0479 32.5156H57.2783V31.9346C57.2783 31.4925 57.1462 31.1416 56.8818 30.8818C56.6175 30.6175 56.2279 30.4854 55.7129 30.4854C55.2617 30.4854 54.8835 30.5993 54.5781 30.8271C54.2728 31.055 54.1201 31.3307 54.1201 31.6543H52.8486C52.8486 31.2852 52.9785 30.9297 53.2383 30.5879C53.5026 30.2415 53.8581 29.9681 54.3047 29.7676C54.7559 29.5671 55.2503 29.4668 55.7881 29.4668C56.6403 29.4668 57.3079 29.681 57.791 30.1094C58.2741 30.5332 58.5247 31.1188 58.543 31.8662V35.2705C58.543 35.9495 58.6296 36.4896 58.8027 36.8906V37H57.4766ZM55.3779 36.0361C55.7744 36.0361 56.1504 35.9336 56.5059 35.7285C56.8613 35.5234 57.1188 35.2568 57.2783 34.9287V33.4111H56.2871C54.7376 33.4111 53.9629 33.8646 53.9629 34.7715C53.9629 35.168 54.0951 35.4779 54.3594 35.7012C54.6237 35.9245 54.9632 36.0361 55.3779 36.0361Z" fill="#383838"/>
<path d="M108 101.5L86.25 114.057L86.25 88.9426L108 101.5Z" fill="#CCCCCC"/>
<path d="M12 4H176V2H12V4ZM183 11V215H185V11H183ZM176 222H12V224H176V222ZM5 215V11H3V215H5ZM12 222C8.13401 222 5 218.866 5 215H3C3 219.971 7.02944 224 12 224V222ZM183 215C183 218.866 179.866 222 176 222V224C180.971 224 185 219.971 185 215H183ZM176 4C179.866 4 183 7.13401 183 11H185C185 6.02944 180.971 2 176 2V4ZM12 2C7.02944 2 3 6.02944 3 11H5C5 7.13401 8.13401 4 12 4V2Z" fill="#EDEDED"/>
</g>
<defs>
<filter id="filter0_d" x="0" y="0" width="190" height="230" filterUnits="userSpaceOnUse" color-interpolation-filters="sRGB">
<feFlood flood-opacity="0" result="BackgroundImageFix"/>
<feColorMatrix in="SourceAlpha" type="matrix" values="0 0 0 0 0 0 0 0 0 0 0 0 0 0 0 0 0 0 127 0"/>
<feOffset dx="1" dy="2"/>
<feGaussianBlur stdDeviation="2.5"/>
<feColorMatrix type="matrix" values="0 0 0 0 0 0 0 0 0 0 0 0 0 0 0 0 0 0 0.1 0"/>
<feBlend mode="normal" in2="BackgroundImageFix" result="effect1_dropShadow"/>
<feBlend mode="normal" in="SourceGraphic" in2="effect1_dropShadow" result="shape"/>
</filter>
</defs>
</svg>
