<svg width="200" height="180" viewBox="0 0 200 180" fill="none" xmlns="http://www.w3.org/2000/svg">
<rect width="200" height="180" fill="#8592AD"/>
<circle cx="100.5" cy="87.5" r="52.5" fill="white"/>
<path fill-rule="evenodd" clip-rule="evenodd" d="M75.3653 82.3321C76.4813 83.2941 78.1336 83.2934 79.2487 82.3304L100.353 64.1061L122.041 82.8295C123.156 83.7927 124.81 83.7927 125.925 82.8295L127.251 81.6851L102.295 60.1367C101.179 59.1732 99.5259 59.1732 98.4101 60.1367L74.0349 81.1853L75.3653 82.3321ZM102.737 75.087L109.705 81.1361L117.596 87.9834C118.246 88.5479 118.62 89.367 118.62 90.2283V104.23C118.62 105.872 117.289 107.202 115.648 107.202H107.423V92.3532C107.423 90.7116 106.092 89.3808 104.451 89.3808H97.1212C95.4797 89.3808 94.1489 90.7116 94.1489 92.3532V107.202H85.9243C84.2827 107.202 82.9519 105.872 82.9519 104.23V90.2283C82.9519 89.367 83.3256 88.5479 83.9762 87.9834L91.8672 81.1361L98.8408 75.0863C99.9587 74.1165 101.62 74.1168 102.737 75.087Z" fill="#8592AD"/>
</svg>
