<svg width="200" height="180" viewBox="0 0 200 180" fill="none" xmlns="http://www.w3.org/2000/svg">
<rect width="200" height="180" fill="white"/>
<rect x="30" y="22" width="143" height="148" fill="#F0F1F5" stroke="#C2C9D6" stroke-width="2"/>
<path fill-rule="evenodd" clip-rule="evenodd" d="M138.5 99.7973C138.5 101.632 137.415 103.293 135.735 104.032L131.786 105.767C131.268 107.476 130.609 109.11 129.808 110.691L132.194 116.782C132.864 118.493 132.458 120.438 131.159 121.737L126.443 126.46C125.144 127.759 123.2 128.168 121.488 127.5L115.224 125.054C113.865 125.71 112.439 126.272 110.979 126.732L109.216 130.75C108.478 132.431 106.816 133.517 104.981 133.517H98.302C96.4628 133.517 94.7984 132.427 94.0629 130.741L92.3576 126.833C90.7498 126.346 89.1992 125.747 87.7125 125.027L81.1203 127.603C79.4096 128.272 77.4653 127.864 76.1666 126.566L71.4509 121.85C70.1523 120.551 69.745 118.607 70.4133 116.897L72.9898 110.301C72.2902 108.841 71.6948 107.324 71.2138 105.767L67.2645 104.032C65.5847 103.293 64.5 101.632 64.5 99.7973V93.1146C64.5 91.2784 65.5863 89.616 67.268 88.8788L71.2441 87.1356C71.8327 85.2453 72.5996 83.4188 73.5112 81.7L71.644 76.9155C70.976 75.204 71.3845 73.2594 72.6846 71.9613L77.4087 67.2442C78.7071 65.9477 80.6492 65.5414 82.3585 66.2087L87.3862 68.1715C88.9671 67.3844 90.6321 66.7116 92.361 66.1936L94.0671 62.2777C94.802 60.5908 96.4671 59.5 98.3071 59.5H104.984C106.82 59.5 108.482 60.5857 109.219 62.2667L110.982 66.2845C112.681 66.826 114.329 67.5055 115.886 68.3026L121.003 66.3063C122.713 65.6391 124.656 66.0465 125.954 67.3446L130.67 72.0607C131.969 73.3597 132.376 75.3046 131.707 77.0156L129.711 82.1205C130.518 83.7283 131.218 85.3966 131.756 87.1356L135.732 88.8788C137.414 89.616 138.5 91.2784 138.5 93.1146V99.7973ZM120 96.5C120 106.717 111.717 115 101.5 115C91.2827 115 83 106.717 83 96.5C83 86.2827 91.2827 78 101.5 78C111.717 78 120 86.2827 120 96.5Z" fill="#C2C9D6"/>
</svg>
