<svg width="200" height="180" viewBox="0 0 200 180" fill="none" xmlns="http://www.w3.org/2000/svg">
<path d="M29 21H144L174 51V171H29V21Z" fill="black" fill-opacity="0.05"/>
<path d="M144 21L174 51L144 51L144 21Z" fill="black" fill-opacity="0.1"/>
<path d="M66.4019 113H58.8749V92.6364H66.3919C68.4667 92.6364 70.2532 93.044 71.7513 93.8594C73.256 94.6681 74.4161 95.8348 75.2314 97.3594C76.0467 98.8774 76.4544 100.694 76.4544 102.808C76.4544 104.929 76.0467 106.752 75.2314 108.277C74.4227 109.802 73.266 110.972 71.7612 111.787C70.2565 112.596 68.47 113 66.4019 113ZM63.7967 108.804H66.2129C67.3531 108.804 68.3176 108.612 69.1064 108.227C69.9019 107.836 70.5018 107.203 70.9061 106.328C71.3171 105.446 71.5226 104.273 71.5226 102.808C71.5226 101.343 71.3171 100.177 70.9061 99.3082C70.4951 98.4332 69.8886 97.8035 69.0865 97.419C68.2911 97.0279 67.31 96.8324 66.1433 96.8324H63.7967V108.804ZM99.6682 102.818C99.6682 105.059 99.2373 106.958 98.3755 108.516C97.5138 110.073 96.3471 111.257 94.8755 112.065C93.4106 112.874 91.7666 113.278 89.9437 113.278C88.1142 113.278 86.4669 112.871 85.002 112.055C83.537 111.24 82.3737 110.057 81.5119 108.506C80.6568 106.948 80.2292 105.052 80.2292 102.818C80.2292 100.578 80.6568 98.6785 81.5119 97.1207C82.3737 95.563 83.537 94.3797 85.002 93.571C86.4669 92.7623 88.1142 92.358 89.9437 92.358C91.7666 92.358 93.4106 92.7623 94.8755 93.571C96.3471 94.3797 97.5138 95.563 98.3755 97.1207C99.2373 98.6785 99.6682 100.578 99.6682 102.818ZM94.6369 102.818C94.6369 101.492 94.448 100.372 94.0702 99.4574C93.6989 98.5426 93.162 97.8499 92.4594 97.3793C91.7633 96.9086 90.9248 96.6733 89.9437 96.6733C88.9693 96.6733 88.1308 96.9086 87.4281 97.3793C86.7255 97.8499 86.1852 98.5426 85.8074 99.4574C85.4362 100.372 85.2505 101.492 85.2505 102.818C85.2505 104.144 85.4362 105.264 85.8074 106.179C86.1852 107.094 86.7255 107.786 87.4281 108.257C88.1308 108.728 88.9693 108.963 89.9437 108.963C90.9248 108.963 91.7633 108.728 92.4594 108.257C93.162 107.786 93.6989 107.094 94.0702 106.179C94.448 105.264 94.6369 104.144 94.6369 102.818ZM122.146 100.014H117.175C117.108 99.5038 116.972 99.0431 116.767 98.6321C116.561 98.2211 116.29 97.8698 115.952 97.5781C115.613 97.2865 115.212 97.0644 114.748 96.9119C114.291 96.7528 113.784 96.6733 113.227 96.6733C112.239 96.6733 111.388 96.9152 110.672 97.3991C109.962 97.883 109.416 98.5824 109.031 99.4972C108.653 100.412 108.464 101.519 108.464 102.818C108.464 104.17 108.657 105.304 109.041 106.219C109.432 107.127 109.979 107.813 110.682 108.277C111.391 108.734 112.229 108.963 113.197 108.963C113.741 108.963 114.235 108.893 114.679 108.754C115.13 108.615 115.524 108.413 115.862 108.148C116.207 107.876 116.488 107.548 116.707 107.163C116.933 106.772 117.088 106.331 117.175 105.841L122.146 105.871C122.06 106.772 121.798 107.661 121.361 108.536C120.93 109.411 120.336 110.209 119.581 110.932C118.825 111.648 117.904 112.218 116.817 112.642C115.736 113.066 114.496 113.278 113.098 113.278C111.255 113.278 109.604 112.874 108.146 112.065C106.694 111.25 105.548 110.063 104.706 108.506C103.864 106.948 103.443 105.052 103.443 102.818C103.443 100.578 103.871 98.6785 104.726 97.1207C105.581 95.563 106.737 94.3797 108.196 93.571C109.654 92.7623 111.288 92.358 113.098 92.358C114.331 92.358 115.471 92.5303 116.518 92.875C117.566 93.2131 118.487 93.7102 119.282 94.3665C120.078 95.0161 120.724 95.8149 121.221 96.7628C121.719 97.7107 122.027 98.7945 122.146 100.014ZM130.517 92.6364L134.236 99.0696H134.395L138.154 92.6364H143.662L137.517 102.818L143.861 113H138.213L134.395 106.497H134.236L130.418 113H124.81L131.124 102.818L124.969 92.6364H130.517Z" fill="black" fill-opacity="0.4"/>
</svg>
