<svg width="200" height="180" viewBox="0 0 200 180" fill="none" xmlns="http://www.w3.org/2000/svg">
<path d="M29 21H144L174 51V171H29V21Z" fill="black" fill-opacity="0.05"/>
<path d="M144 21L174 51L144 51L144 21Z" fill="black" fill-opacity="0.1"/>
<path d="M60.0233 113V92.6364H64.9452V100.81H72.9693V92.6364H77.8813V113H72.9693V104.817H64.9452V113H60.0233ZM81.4224 96.6335V92.6364H98.6341V96.6335H92.4594V113H87.6071V96.6335H81.4224ZM102.158 92.6364H108.253L113.423 105.244H113.662L118.833 92.6364H124.928V113H120.135V100.491H119.966L115.074 112.871H112.012L107.119 100.422H106.95V113H102.158V92.6364ZM129.118 113V92.6364H134.04V109.003H142.511V113H129.118Z" fill="black" fill-opacity="0.4"/>
</svg>
