<svg width="200" height="180" viewBox="0 0 200 180" fill="none" xmlns="http://www.w3.org/2000/svg">
<path d="M29 21H144L174 51V171H29V21Z" fill="black" fill-opacity="0.05"/>
<path d="M144 21L174 51L144 51L144 21Z" fill="black" fill-opacity="0.1"/>
<path d="M75.6762 92.6364L79.3949 99.0696H79.554L83.3125 92.6364H88.8211L82.6762 102.818L89.0199 113H83.3722L79.554 106.497H79.3949L75.5767 113H69.9688L76.2827 102.818L70.1279 92.6364H75.6762ZM92.4865 92.6364H98.5817L103.752 105.244H103.991L109.161 92.6364H115.256V113H110.464V100.491H110.295L105.403 112.871H102.34L97.4482 100.422H97.2791V113H92.4865V92.6364ZM119.446 113V92.6364H124.368V109.003H132.84V113H119.446Z" fill="black" fill-opacity="0.4"/>
</svg>
