<svg width="200" height="180" viewBox="0 0 200 180" fill="none" xmlns="http://www.w3.org/2000/svg">
<path d="M29 21H144L174 51V171H29V21Z" fill="black" fill-opacity="0.05"/>
<path d="M144 21L174 51L144 51L144 21Z" fill="black" fill-opacity="0.1"/>
<path d="M91.2708 100.014H86.2992C86.2329 99.5038 86.097 99.0431 85.8915 98.6321C85.686 98.2211 85.4143 97.8698 85.0762 97.5781C84.7381 97.2865 84.3371 97.0644 83.8731 96.9119C83.4157 96.7528 82.9086 96.6733 82.3518 96.6733C81.3641 96.6733 80.5123 96.9152 79.7964 97.3991C79.0871 97.883 78.5402 98.5824 78.1557 99.4972C77.7779 100.412 77.589 101.519 77.589 102.818C77.589 104.17 77.7812 105.304 78.1657 106.219C78.5568 107.127 79.1037 107.813 79.8063 108.277C80.5156 108.734 81.3541 108.963 82.3219 108.963C82.8655 108.963 83.3593 108.893 83.8035 108.754C84.2542 108.615 84.6486 108.413 84.9867 108.148C85.3314 107.876 85.6131 107.548 85.8319 107.163C86.0573 106.772 86.213 106.331 86.2992 105.841L91.2708 105.871C91.1846 106.772 90.9228 107.661 90.4853 108.536C90.0544 109.411 89.4611 110.209 88.7055 110.932C87.9498 111.648 87.0284 112.218 85.9413 112.642C84.8608 113.066 83.6212 113.278 82.2225 113.278C80.3797 113.278 78.7291 112.874 77.2708 112.065C75.8191 111.25 74.6723 110.063 73.8305 108.506C72.9886 106.948 72.5677 105.052 72.5677 102.818C72.5677 100.578 72.9952 98.6785 73.8503 97.1207C74.7055 95.563 75.8622 94.3797 77.3205 93.571C78.7789 92.7623 80.4128 92.358 82.2225 92.358C83.4555 92.358 84.5956 92.5303 85.643 92.875C86.6903 93.2131 87.6117 93.7102 88.4072 94.3665C89.2026 95.0161 89.8489 95.8149 90.3461 96.7628C90.8432 97.7107 91.1515 98.7945 91.2708 100.014ZM106.214 98.7415C106.148 98.0123 105.853 97.4455 105.329 97.0412C104.812 96.6302 104.073 96.4247 103.112 96.4247C102.476 96.4247 101.945 96.5076 101.521 96.6733C101.097 96.839 100.779 97.0677 100.567 97.3594C100.354 97.6444 100.245 97.9725 100.238 98.3438C100.225 98.6487 100.285 98.9171 100.417 99.1491C100.557 99.3812 100.756 99.5866 101.014 99.7656C101.279 99.938 101.597 100.09 101.969 100.223C102.34 100.356 102.757 100.472 103.221 100.571L104.971 100.969C105.979 101.188 106.867 101.479 107.636 101.844C108.412 102.208 109.061 102.643 109.585 103.146C110.115 103.65 110.516 104.23 110.788 104.886C111.06 105.543 111.199 106.278 111.206 107.094C111.199 108.38 110.874 109.483 110.231 110.405C109.588 111.326 108.664 112.032 107.457 112.523C106.257 113.013 104.809 113.259 103.112 113.259C101.408 113.259 99.9236 113.003 98.6575 112.493C97.3914 111.982 96.407 111.207 95.7044 110.166C95.0017 109.125 94.6404 107.81 94.6206 106.219H99.3336C99.3734 106.875 99.5491 107.422 99.8606 107.859C100.172 108.297 100.6 108.628 101.143 108.854C101.693 109.079 102.33 109.192 103.052 109.192C103.715 109.192 104.279 109.102 104.743 108.923C105.213 108.744 105.575 108.496 105.827 108.178C106.078 107.859 106.208 107.495 106.214 107.084C106.208 106.699 106.088 106.371 105.856 106.099C105.624 105.821 105.266 105.582 104.782 105.384C104.305 105.178 103.695 104.989 102.953 104.817L100.825 104.32C99.0618 103.915 97.6731 103.262 96.6589 102.361C95.6447 101.453 95.1409 100.226 95.1475 98.6818C95.1409 97.4223 95.479 96.3187 96.1618 95.3707C96.8445 94.4228 97.7891 93.6837 98.9956 93.1534C100.202 92.6231 101.577 92.358 103.122 92.358C104.7 92.358 106.068 92.6264 107.229 93.1634C108.395 93.6937 109.3 94.4394 109.943 95.4006C110.586 96.3617 110.914 97.4754 110.927 98.7415H106.214ZM125.819 98.7415C125.752 98.0123 125.457 97.4455 124.934 97.0412C124.417 96.6302 123.678 96.4247 122.716 96.4247C122.08 96.4247 121.55 96.5076 121.126 96.6733C120.701 96.839 120.383 97.0677 120.171 97.3594C119.959 97.6444 119.849 97.9725 119.843 98.3438C119.83 98.6487 119.889 98.9171 120.022 99.1491C120.161 99.3812 120.36 99.5866 120.618 99.7656C120.884 99.938 121.202 100.09 121.573 100.223C121.944 100.356 122.362 100.472 122.826 100.571L124.576 100.969C125.583 101.188 126.472 101.479 127.241 101.844C128.016 102.208 128.666 102.643 129.189 103.146C129.72 103.65 130.121 104.23 130.393 104.886C130.664 105.543 130.804 106.278 130.81 107.094C130.804 108.38 130.479 109.483 129.836 110.405C129.193 111.326 128.268 112.032 127.062 112.523C125.862 113.013 124.413 113.259 122.716 113.259C121.013 113.259 119.528 113.003 118.262 112.493C116.996 111.982 116.011 111.207 115.309 110.166C114.606 109.125 114.245 107.81 114.225 106.219H118.938C118.978 106.875 119.153 107.422 119.465 107.859C119.777 108.297 120.204 108.628 120.748 108.854C121.298 109.079 121.934 109.192 122.657 109.192C123.32 109.192 123.883 109.102 124.347 108.923C124.818 108.744 125.179 108.496 125.431 108.178C125.683 107.859 125.812 107.495 125.819 107.084C125.812 106.699 125.693 106.371 125.461 106.099C125.229 105.821 124.871 105.582 124.387 105.384C123.91 105.178 123.3 104.989 122.557 104.817L120.429 104.32C118.666 103.915 117.277 103.262 116.263 102.361C115.249 101.453 114.745 100.226 114.752 98.6818C114.745 97.4223 115.083 96.3187 115.766 95.3707C116.449 94.4228 117.393 93.6837 118.6 93.1534C119.806 92.6231 121.182 92.358 122.726 92.358C124.304 92.358 125.673 92.6264 126.833 93.1634C128 93.6937 128.904 94.4394 129.547 95.4006C130.19 96.3617 130.519 97.4754 130.532 98.7415H125.819Z" fill="black" fill-opacity="0.4"/>
</svg>
