<svg width="200" height="180" viewBox="0 0 200 180" fill="none" xmlns="http://www.w3.org/2000/svg">
<g clip-path="url(#clip0_40_345)">
<rect width="200" height="180" fill="white"/>
<rect x="57" y="37" width="89" height="110" fill="#CCCCCC" stroke="#CCCCCC" stroke-width="4"/>
<rect x="124" y="35" width="23" height="22" fill="#808080"/>
<path d="M148 57L124 34H148V57Z" fill="white"/>
<path d="M123.266 94.0273H116.516V101H113V83.9375H124.109V86.7852H116.516V91.1914H123.266V94.0273Z" fill="white"/>
<path d="M96.3906 101V83.9375H101.641C103.141 83.9375 104.48 84.2773 105.66 84.957C106.848 85.6289 107.773 86.5898 108.438 87.8398C109.102 89.082 109.434 90.4961 109.434 92.082V92.8672C109.434 94.4531 109.105 95.8633 108.449 97.0977C107.801 98.332 106.883 99.2891 105.695 99.9688C104.508 100.648 103.168 100.992 101.676 101H96.3906ZM99.9062 86.7852V98.1758H101.605C102.98 98.1758 104.031 97.7266 104.758 96.8281C105.484 95.9297 105.855 94.6445 105.871 92.9727V92.0703C105.871 90.3359 105.512 89.0234 104.793 88.1328C104.074 87.2344 103.023 86.7852 101.641 86.7852H99.9062Z" fill="white"/>
<path d="M83.4141 94.9883V101H79.8984V83.9375H86.5547C87.8359 83.9375 88.9609 84.1719 89.9297 84.6406C90.9062 85.1094 91.6562 85.7773 92.1797 86.6445C92.7031 87.5039 92.9648 88.4844 92.9648 89.5859C92.9648 91.2578 92.3906 92.5781 91.2422 93.5469C90.1016 94.5078 88.5195 94.9883 86.4961 94.9883H83.4141ZM83.4141 92.1406H86.5547C87.4844 92.1406 88.1914 91.9219 88.6758 91.4844C89.168 91.0469 89.4141 90.4219 89.4141 89.6094C89.4141 88.7734 89.168 88.0977 88.6758 87.582C88.1836 87.0664 87.5039 86.8008 86.6367 86.7852H83.4141V92.1406Z" fill="white"/>
</g>
<defs>
<clipPath id="clip0_40_345">
<rect width="200" height="180" fill="white"/>
</clipPath>
</defs>
</svg>
