<svg width="200" height="180" viewBox="0 0 200 180" fill="none" xmlns="http://www.w3.org/2000/svg">
<rect width="200" height="173" fill="black" fill-opacity="0.03"/>
<path d="M95.8977 64.8359C98.3398 62.7173 101.969 62.7176 104.41 64.8369L119.632 78.0527L136.872 93.0117C138.294 94.2451 139.11 96.0351 139.11 97.917V128.506C139.11 132.092 136.202 135 132.615 135H114.648V102.559C114.648 98.9724 111.74 96.0654 108.154 96.0654H92.1418C88.5556 96.0654 85.6479 98.9724 85.6477 102.559V135H67.679C64.0927 135 61.1858 132.092 61.1858 128.506V97.917C61.1858 96.0351 62.0017 94.2451 63.4231 93.0117L80.6624 78.0527L95.8977 64.8359ZM94.9573 38.7451C97.395 36.64 101.008 36.6392 103.446 38.7441L157.966 85.8213L155.07 88.3213C152.632 90.4257 149.021 90.4257 146.583 88.3213L99.2014 47.417L53.095 87.2314C50.6587 89.3353 47.0486 89.337 44.6106 87.2354L41.7043 84.7295L94.9573 38.7451Z" fill="black" fill-opacity="0.15"/>
</svg>
