<svg width="128" height="128" viewBox="0 0 128 128" fill="none" xmlns="http://www.w3.org/2000/svg">
<path d="M60.0503 22.9497C62.784 20.2162 67.2161 20.2161 69.9497 22.9497L82.0493 35.0503C84.783 37.784 84.783 42.216 82.0493 44.9497L69.9497 57.0493C67.216 59.783 62.784 59.783 60.0503 57.0493L47.9497 44.9497C45.2161 42.2161 45.2162 37.784 47.9497 35.0503L60.0503 22.9497ZM64.9263 33.9995C61.6533 33.9995 58.9995 36.6533 58.9995 39.9263C58.9997 43.199 61.6535 45.8521 64.9263 45.8521C68.199 45.852 70.8518 43.199 70.8521 39.9263C70.8521 36.6534 68.1991 33.9996 64.9263 33.9995Z" fill="#383333"/>
<path d="M46.5557 66.4436C50.4216 66.4436 53.5556 69.5776 53.5557 73.4436V90.5559C53.5557 94.4219 50.4217 97.5559 46.5557 97.5559H29.4434C25.5774 97.5559 22.4434 94.4219 22.4434 90.5559V73.4436C22.4434 69.5776 25.5774 66.4436 29.4434 66.4436H46.5557ZM37.9258 76.0002C34.653 76.0005 32 78.6532 32 81.926C32.0001 85.1988 34.6531 87.8516 37.9258 87.8518C41.1987 87.8518 43.8525 85.1989 43.8525 81.926C43.8525 78.6531 41.1987 76.0002 37.9258 76.0002Z" fill="#383333"/>
<path d="M81.4438 66.4436C77.5779 66.4436 74.4439 69.5776 74.4438 73.4436V90.5559C74.4438 94.4219 77.5779 97.5559 81.4438 97.5559H98.5562C102.422 97.5559 105.556 94.4219 105.556 90.5559V73.4436C105.556 69.5776 102.422 66.4436 98.5562 66.4436H81.4438ZM90.0737 76.0002C93.3465 76.0005 95.9995 78.6532 95.9995 81.926C95.9995 85.1988 93.3464 87.8516 90.0737 87.8518C86.8008 87.8518 84.147 85.1989 84.147 81.926C84.147 78.6531 86.8008 76.0002 90.0737 76.0002Z" fill="#383333"/>
</svg>
