<svg width="791" height="216" viewBox="0 0 791 216" fill="none" xmlns="http://www.w3.org/2000/svg">
<path d="M311.703 151.944C305.249 151.944 299.044 150.91 293.086 148.842C287.211 146.773 282.66 144.043 279.433 140.65L283.033 133.576C286.177 136.72 290.356 139.285 295.568 141.271C300.781 143.174 306.159 144.125 311.703 144.125C319.481 144.125 325.314 142.719 329.203 139.905C333.092 137.009 335.037 133.286 335.037 128.735C335.037 125.26 333.961 122.488 331.81 120.419C329.741 118.351 327.176 116.779 324.115 115.703C321.053 114.545 316.792 113.304 311.331 111.98C304.794 110.325 299.581 108.753 295.692 107.263C291.804 105.691 288.452 103.333 285.639 100.189C282.909 97.0446 281.543 92.7834 281.543 87.4051C281.543 83.0197 282.702 79.048 285.019 75.4901C287.335 71.8494 290.893 68.9534 295.692 66.8021C300.492 64.6508 306.449 63.5751 313.565 63.5751C318.529 63.5751 323.37 64.2784 328.086 65.6851C332.885 67.009 337.022 68.8707 340.498 71.2702L337.395 78.593C333.754 76.1934 329.865 74.4144 325.728 73.256C321.591 72.0149 317.537 71.3943 313.565 71.3943C305.953 71.3943 300.202 72.8837 296.313 75.8624C292.507 78.7584 290.604 82.5232 290.604 87.1568C290.604 90.632 291.638 93.4453 293.707 95.5966C295.858 97.6652 298.506 99.2787 301.65 100.437C304.877 101.513 309.18 102.713 314.558 104.036C320.929 105.608 326.059 107.181 329.948 108.753C333.92 110.242 337.271 112.559 340.001 115.703C342.732 118.765 344.097 122.943 344.097 128.239C344.097 132.624 342.897 136.637 340.498 140.278C338.181 143.836 334.582 146.69 329.7 148.842C324.818 150.91 318.819 151.944 311.703 151.944Z" fill="black"/>
<path d="M483.382 64.3198L454.091 151.2H444.41L418.967 77.1036L393.399 151.2H383.843L354.552 64.3198H363.984L389.055 139.037L414.995 64.3198H423.559L449.127 139.409L474.57 64.3198H483.382Z" fill="black"/>
<path d="M552.042 127.99H503.637L493.212 151.2H483.655L523.371 64.3198H532.432L572.148 151.2H562.467L552.042 127.99ZM548.691 120.544L527.839 73.8766L506.988 120.544H548.691Z" fill="black"/>
<path d="M659.127 64.3198V151.2H651.556L595.705 80.7029V151.2H586.52V64.3198H594.091L650.067 134.817V64.3198H659.127Z" fill="black"/>
<path d="M687.484 64.3198H696.669V151.2H687.484V64.3198Z" fill="black"/>
<path d="M779.423 151.2L751.373 112.973L723.447 151.2H712.898L745.912 106.519L715.008 64.3198H725.557L751.745 99.8165L777.809 64.3198H787.739L756.958 106.27L790.097 151.2H779.423Z" fill="black"/>
<path d="M108 0C136.641 7.0158e-06 164.11 11.3769 184.363 31.6279C204.617 51.8789 215.996 79.3455 216 107.986C216.003 129.347 209.671 150.23 197.806 167.992C185.94 185.754 169.073 199.599 149.339 207.775C129.605 215.952 107.889 218.092 86.9385 213.927C65.9876 209.761 46.7421 199.476 31.6367 184.372C16.5315 169.269 6.24442 150.024 2.07615 129.074C-2.09202 108.124 0.0458992 86.4079 8.21971 66.6729C16.3936 46.9378 30.2363 30.0699 47.997 18.2021C65.7578 6.33437 86.639 1.65803e-07 108 0ZM115.858 28.7959C107.666 28.1867 99.4442 29.4859 91.8388 32.5908C84.7955 35.4423 78.8464 40.4681 74.8574 46.9355C70.8569 53.3762 68.5901 60.7419 68.2773 68.3174C67.8768 74.9796 69.1344 81.6372 71.9375 87.6943C74.9182 93.8016 79.4577 99.0142 85.0976 102.806C89.7266 106.107 97.9125 109.803 109.655 113.894C121.398 117.984 128.969 120.945 132.369 122.775C137.671 125.547 141.417 128.799 143.605 132.53C145.835 136.419 146.861 140.882 146.553 145.354C146.368 149.973 144.885 154.445 142.273 158.259C141.95 158.743 141.6 159.201 141.25 159.604C141.474 158.371 141.537 157.114 141.438 155.864C140.308 142.341 119.909 132.988 95.7822 134.993C91.7802 135.317 87.8104 135.965 83.9131 136.931C79.5396 132.423 67.0926 122.654 41.2168 122.21L57.6875 141.479L37.7178 136.891C37.7178 136.891 52.7216 153.589 66.3662 160.694C70.2189 168.682 76.3662 175.34 84.0215 179.816C91.7632 184.302 101.492 186.917 113.208 187.661C121.867 188.331 130.555 186.785 138.451 183.167C145.829 179.79 152.032 174.289 156.268 167.369C160.512 160.524 162.926 152.702 163.278 144.655C163.768 137.015 162.251 129.379 158.878 122.506C155.205 115.58 149.674 109.815 142.905 105.86C137.864 102.747 128.444 98.9079 114.647 94.3418C100.85 89.7757 92.4045 85.6086 89.3095 81.8408C86.0806 77.9563 84.5009 72.9615 84.9092 67.9268C85.013 64.8777 85.7691 61.8863 87.1269 59.1543C88.4849 56.4222 90.4133 54.0127 92.7812 52.0889C99.4034 46.3617 108.009 43.463 116.747 44.0156C121.42 44.3437 125.965 45.684 130.068 47.9443C132.652 61.3059 142.851 60.3248 144.87 60.0557H158.663C158.004 58.1718 152.998 42.5622 140.995 35.834C133.271 31.5817 124.668 29.1727 115.858 28.7959ZM142.744 64.8594L157.156 84.9355L158.865 64.3877L142.744 64.8594ZM148.584 49.8418C149.33 49.8418 150.059 50.0631 150.679 50.4775C151.299 50.8921 151.782 51.4817 152.066 52.1709C152.351 52.8601 152.425 53.6184 152.278 54.3496C152.132 55.0808 151.771 55.7519 151.243 56.2783C150.715 56.8047 150.042 57.1628 149.311 57.3066C148.579 57.4504 147.821 57.3741 147.133 57.0869C146.445 56.7997 145.858 56.3145 145.445 55.6934C145.033 55.0721 144.814 54.3423 144.816 53.5967C144.813 53.1003 144.908 52.6079 145.096 52.1484C145.284 51.689 145.561 51.2706 145.911 50.9189C146.261 50.5675 146.678 50.2891 147.137 50.0996C147.595 49.9101 148.088 49.8137 148.584 49.8154V49.8418Z" fill="black"/>
</svg>
