<svg width="216" height="216" viewBox="0 0 216 216" fill="none" xmlns="http://www.w3.org/2000/svg">
<path d="M216 107.987C216.003 129.347 209.671 150.229 197.805 167.992C185.94 185.754 169.073 199.599 149.339 207.775C129.605 215.951 107.889 218.092 86.9384 213.926C65.9876 209.761 46.7426 199.476 31.6371 184.372C16.5317 169.269 6.24452 150.025 2.07623 129.075C-2.09207 108.124 0.0458872 86.4084 8.21976 66.6732C16.3936 46.938 30.2363 30.07 47.9971 18.2022C65.7579 6.33439 86.639 1.65803e-07 108 0C136.641 -2.22311e-07 164.109 11.3766 184.363 31.6276C204.616 51.8787 215.996 79.3455 216 107.987Z" fill="black"/>
<path d="M157.156 84.9358L158.865 64.388L142.744 64.8591L157.156 84.9358Z" fill="white"/>
<path d="M158.878 122.506C155.206 115.58 149.674 109.815 142.905 105.86C137.864 102.748 128.444 98.908 114.647 94.3419C100.85 89.7757 92.4041 85.6088 89.3092 81.841C86.0802 77.9565 84.5007 72.962 84.909 67.9272C85.0127 64.878 85.7692 61.8865 87.1271 59.1544C88.4851 56.4222 90.4129 54.013 92.7808 52.0892C99.403 46.3619 108.009 43.4627 116.747 44.0154C121.42 44.3435 125.965 45.6843 130.068 47.9447C132.652 61.3068 142.852 60.3245 144.87 60.0553H158.663C158.003 58.1715 152.998 42.5622 140.995 35.834C133.271 31.5818 124.668 29.1731 115.858 28.7964C107.666 28.1872 99.4444 29.4861 91.839 32.591C84.7955 35.4426 78.8462 40.468 74.8572 46.9355C70.8566 53.3761 68.5898 60.7419 68.277 68.3174C67.8765 74.9797 69.134 81.6373 71.9371 87.6945C74.9178 93.8018 79.4574 99.0144 85.0974 102.806C89.7263 106.107 97.9122 109.803 109.655 113.894C121.398 117.984 128.969 120.945 132.369 122.775C137.671 125.547 141.416 128.799 143.605 132.531C145.835 136.42 146.861 140.882 146.552 145.355C146.368 149.973 144.885 154.446 142.273 158.259C141.95 158.744 141.6 159.201 141.25 159.605C141.474 158.371 141.538 157.114 141.439 155.864C140.308 142.34 119.909 132.988 95.7817 134.993C91.7797 135.318 87.8105 135.966 83.9132 136.931C79.5399 132.423 67.0929 122.654 41.2165 122.21L57.687 141.479L37.7179 136.891C37.7179 136.891 52.7215 153.59 66.3662 160.695C70.2189 168.682 76.3657 175.34 84.021 179.816C91.7628 184.302 101.492 186.916 113.208 187.661C121.867 188.331 130.555 186.785 138.451 183.167C145.829 179.789 152.032 174.289 156.268 167.369C160.512 160.523 162.926 152.702 163.278 144.655C163.768 137.014 162.251 129.379 158.878 122.506ZM148.584 49.842C149.33 49.842 150.059 50.0633 150.679 50.4779C151.299 50.8925 151.781 51.4818 152.066 52.171C152.351 52.8603 152.425 53.6185 152.278 54.3497C152.132 55.081 151.772 55.7523 151.243 56.2787C150.715 56.8051 150.043 57.1629 149.311 57.3067C148.579 57.4506 147.821 57.374 147.133 57.0868C146.445 56.7996 145.857 56.3146 145.445 55.6932C145.032 55.0718 144.814 54.342 144.816 53.5963C144.813 53.0998 144.908 52.6077 145.096 52.1482C145.283 51.6887 145.561 51.271 145.911 50.9194C146.261 50.5677 146.678 50.2891 147.137 50.0995C147.596 49.91 148.088 49.8133 148.584 49.815V49.842Z" fill="white"/>
</svg>
