<svg width="200" height="180" viewBox="0 0 200 180" fill="none" xmlns="http://www.w3.org/2000/svg">
<g clip-path="url(#clip0_4_715)">
<rect x="9" width="183" height="173" rx="18" fill="#00D6BC"/>
<path d="M96.8258 40.451C98.2048 39.072 100.441 39.072 101.82 40.451L144.195 82.826C145.205 83.836 145.507 85.3551 144.961 86.6747C144.414 87.9941 143.126 88.8543 141.698 88.8543H135.812V118.281C135.812 121.715 134.448 125.009 132.02 127.437C129.592 129.865 126.299 131.229 122.865 131.229H75.7809C72.3471 131.229 69.0537 129.865 66.6256 127.437C64.1974 125.009 62.8336 121.715 62.8336 118.281V88.8543H56.9479C55.5197 88.8543 54.2318 87.9941 53.6852 86.6747C53.1386 85.3551 53.4409 83.836 54.4508 82.826L96.8258 40.451ZM65.4733 81.7918H66.3649C68.315 81.792 69.8961 83.373 69.8961 85.3231V118.281C69.8961 119.842 70.516 121.339 71.6198 122.443C72.7234 123.547 74.2202 124.167 75.7809 124.167H81.6666V99.4481C81.6666 96.0143 83.0306 92.721 85.4586 90.2928C87.8868 87.8646 91.1809 86.4999 94.6149 86.4999H104.031C107.465 86.4999 110.759 87.8646 113.187 90.2928C115.615 92.721 116.979 96.0143 116.979 99.4481V124.167H122.865C124.426 124.167 125.922 123.547 127.026 122.443C128.13 121.339 128.75 119.842 128.75 118.281V85.3231C128.75 83.373 130.331 81.792 132.281 81.7918H133.172L99.3229 47.9422L65.4733 81.7918ZM94.6149 93.5624C93.054 93.5624 91.5565 94.1823 90.4528 95.286C89.349 96.3897 88.7291 97.8872 88.7291 99.4481V124.167H109.917V99.4481C109.917 97.8872 109.297 96.3897 108.193 95.286C107.089 94.1823 105.592 93.5624 104.031 93.5624H94.6149Z" fill="white"/>
</g>
<defs>
<clipPath id="clip0_4_715">
<rect width="200" height="180" fill="white"/>
</clipPath>
</defs>
</svg>
