<svg width="200" height="180" viewBox="0 0 200 180" fill="none" xmlns="http://www.w3.org/2000/svg">
<g clip-path="url(#clip0_4_721)">
<rect x="9" width="183" height="173" rx="18" fill="#00D6BC"/>
<path d="M141.698 72.3752C143.648 72.3752 145.229 73.9563 145.229 75.9064C145.229 77.8567 143.648 79.4377 141.698 79.4377H140.521V124.167H141.698C143.648 124.167 145.229 125.748 145.229 127.698C145.229 129.649 143.648 131.23 141.698 131.23H56.948C54.9978 131.23 53.4168 129.649 53.4167 127.698C53.4167 125.748 54.9977 124.167 56.948 124.167H58.1248V79.4377H56.948C54.9977 79.4377 53.4167 77.8567 53.4167 75.9064C53.4169 73.9563 54.9978 72.3752 56.948 72.3752H141.698ZM65.1873 79.4377V124.167H133.459V79.4377H65.1873ZM80.49 91.2092C82.4401 91.2093 84.0212 92.7903 84.0212 94.7404V108.865C84.021 110.815 82.44 112.396 80.49 112.397C78.5399 112.397 76.9589 110.815 76.9587 108.865V94.7404C76.9587 92.7901 78.5397 91.2092 80.49 91.2092ZM99.323 91.2092C101.273 91.2092 102.854 92.7901 102.854 94.7404V108.865C102.854 110.815 101.273 112.397 99.323 112.397C97.3729 112.397 95.7919 110.815 95.7917 108.865V94.7404C95.7917 92.7902 97.3727 91.2092 99.323 91.2092ZM118.156 91.2092C120.106 91.2092 121.687 92.7901 121.687 94.7404V108.865C121.687 110.815 120.106 112.397 118.156 112.397C116.206 112.396 114.625 110.815 114.625 108.865V94.7404C114.625 92.7903 116.206 91.2093 118.156 91.2092ZM97.9324 39.7023C98.8204 39.3219 99.8256 39.3219 100.714 39.7023L133.673 53.8273C135.465 54.5955 136.295 56.6716 135.527 58.464C134.759 60.2565 132.683 61.0876 130.89 60.3195L99.323 46.7902L67.7556 60.3195C65.9631 61.0876 63.8871 60.2565 63.1189 58.464C62.3509 56.6716 63.181 54.5955 64.9734 53.8273L97.9324 39.7023Z" fill="white"/>
</g>
<defs>
<clipPath id="clip0_4_721">
<rect width="200" height="180" fill="white"/>
</clipPath>
</defs>
</svg>
