<svg width="200" height="180" viewBox="0 0 200 180" fill="none" xmlns="http://www.w3.org/2000/svg">
<g clip-path="url(#clip0_4_714)">
<rect x="9" width="183" height="173" rx="18" fill="#00D6BC"/>
<path d="M136.99 58.25C141.54 58.2502 145.229 61.9397 145.229 66.4902C145.229 71.0406 141.54 74.7293 136.99 74.7295C136.281 74.7295 135.592 74.6402 134.935 74.4717L120.928 91.2803C121.416 92.3322 121.687 93.5047 121.687 94.7402C121.687 99.2907 117.998 102.979 113.448 102.979C108.898 102.979 105.209 99.2907 105.209 94.7402C105.209 93.7689 105.377 92.8361 105.685 91.9707L92.6755 78.9609C91.8102 79.2696 90.8774 79.4375 89.906 79.4375C89.1568 79.4375 88.4308 79.3378 87.741 79.1504L69.1833 100.801C69.641 101.826 69.8962 102.961 69.8962 104.156C69.8962 108.707 66.2066 112.396 61.656 112.396C57.1056 112.396 53.4167 108.707 53.4167 104.156C53.4169 99.6059 57.1057 95.9172 61.656 95.917C62.4053 95.917 63.1321 96.0167 63.822 96.2041L82.3787 74.5537C81.9211 73.5288 81.6668 72.3932 81.6667 71.1982C81.6667 66.6478 85.3556 62.9592 89.906 62.959C94.4566 62.959 98.1462 66.6476 98.1462 71.1982C98.1462 72.1696 97.9774 73.1015 97.6687 73.9668L110.679 86.9775C111.545 86.6689 112.477 86.5 113.448 86.5C114.157 86.5 114.846 86.5902 115.503 86.7588L129.51 69.9502C129.022 68.8982 128.75 67.7259 128.75 66.4902C128.75 61.9396 132.439 58.25 136.99 58.25Z" fill="white"/>
</g>
<defs>
<clipPath id="clip0_4_714">
<rect width="200" height="180" fill="white"/>
</clipPath>
</defs>
</svg>
