<svg width="200" height="180" viewBox="0 0 200 180" fill="none" xmlns="http://www.w3.org/2000/svg">
<g clip-path="url(#clip0_4_852)">
<rect x="9" width="183" height="173" rx="18" fill="#00D6BC"/>
<path d="M94.6149 95.917C100.546 95.9171 106.234 98.2737 110.428 102.468C114.622 106.662 116.979 112.35 116.979 118.281V127.698C116.979 129.648 115.398 131.229 113.448 131.229C111.498 131.229 109.917 129.648 109.917 127.698V118.281C109.917 114.223 108.305 110.331 105.435 107.461C102.566 104.591 98.6731 102.98 94.6149 102.979H75.7809C71.7226 102.98 67.8302 104.591 64.9606 107.461C62.091 110.331 60.4792 114.223 60.4791 118.281V127.698C60.4791 129.648 58.8981 131.229 56.9479 131.229C54.9976 131.229 53.4166 129.648 53.4166 127.698V118.281C53.4167 112.35 55.7733 106.662 59.9674 102.468C64.1615 98.2737 69.8495 95.9171 75.7809 95.917H94.6149ZM124.154 99.2715C124.641 97.3832 126.567 96.2469 128.456 96.7344C133.235 97.9683 137.472 100.749 140.506 104.643C143.54 108.536 145.201 113.325 145.229 118.261V127.697C145.229 129.648 143.648 131.229 141.698 131.229C139.748 131.229 138.167 129.648 138.167 127.697V118.292C138.145 114.918 137.009 111.646 134.935 108.984C132.859 106.32 129.96 104.418 126.69 103.573C124.802 103.086 123.667 101.16 124.154 99.2715ZM85.1979 39.417C97.5494 39.417 107.562 49.4298 107.562 61.7812C107.562 74.1329 97.5495 84.1465 85.1979 84.1465C72.8463 84.1465 62.8336 74.1329 62.8336 61.7812C62.8338 49.4298 72.8464 39.417 85.1979 39.417ZM114.735 42.6836C115.219 40.7945 117.143 39.6551 119.032 40.1387C123.843 41.3704 128.107 44.1681 131.152 48.0908C134.197 52.0136 135.849 56.8388 135.849 61.8047C135.849 66.7704 134.197 71.5949 131.152 75.5176C128.107 79.4404 123.843 82.239 119.032 83.4707C117.143 83.9542 115.219 82.814 114.735 80.9248C114.252 79.0358 115.391 77.1128 117.28 76.6289C120.571 75.7861 123.489 73.8715 125.573 71.1875C127.656 68.5035 128.787 65.2023 128.787 61.8047C128.787 58.4071 127.656 55.1059 125.573 52.4219C123.489 49.7379 120.571 47.8232 117.28 46.9805C115.391 46.4965 114.251 44.5728 114.735 42.6836ZM85.1979 46.4795C76.7469 46.4795 69.8963 53.3303 69.8961 61.7812C69.8961 70.2324 76.7468 77.084 85.1979 77.084C93.649 77.084 100.5 70.2324 100.5 61.7812C100.499 53.3303 93.6489 46.4795 85.1979 46.4795Z" fill="white"/>
</g>
<defs>
<clipPath id="clip0_4_852">
<rect width="200" height="180" fill="white"/>
</clipPath>
</defs>
</svg>
