<svg width="200" height="180" viewBox="0 0 200 180" fill="none" xmlns="http://www.w3.org/2000/svg">
<g clip-path="url(#clip0_4_720)">
<rect x="9" width="183" height="173" rx="18" fill="#00D6BC"/>
<path d="M99.3229 39.417C124.676 39.417 145.229 59.9699 145.229 85.3232C145.229 110.677 124.676 131.229 99.3229 131.229C73.9696 131.229 53.4166 110.677 53.4166 85.3232C53.4166 59.9699 73.9696 39.417 99.3229 39.417ZM99.3229 46.4795C77.8701 46.4795 60.4791 63.8704 60.4791 85.3232C60.4791 106.776 77.8701 124.167 99.3229 124.167C120.776 124.167 138.167 106.776 138.167 85.3232C138.167 63.8704 120.776 46.4795 99.3229 46.4795ZM113.448 67.667C113.927 67.667 114.383 67.762 114.799 67.9346C115.216 68.1069 115.606 68.3626 115.945 68.7012C116.634 69.3907 116.979 70.2945 116.979 71.1982V99.4482C116.979 101.398 115.398 102.979 113.448 102.979C111.498 102.979 109.917 101.398 109.917 99.4482V79.7236L87.6949 101.945C86.3159 103.324 84.0798 103.324 82.7008 101.945C81.3218 100.566 81.3218 98.3302 82.7008 96.9512L104.922 74.7295H85.1979C83.2476 74.7295 81.6666 73.1485 81.6666 71.1982C81.6666 69.248 83.2476 67.667 85.1979 67.667H113.448Z" fill="white"/>
</g>
<defs>
<clipPath id="clip0_4_720">
<rect width="200" height="180" fill="white"/>
</clipPath>
</defs>
</svg>
