<svg width="200" height="180" viewBox="0 0 200 180" fill="none" xmlns="http://www.w3.org/2000/svg">
<g clip-path="url(#clip0_4_747)">
<rect x="9" width="183" height="173" rx="18" fill="#00D6BC"/>
<path d="M122.865 44.125C127.547 44.1251 132.038 45.9858 135.349 49.2969C138.66 52.608 140.521 57.0986 140.521 61.7812C140.521 61.8453 140.519 61.9097 140.515 61.9736C140.021 71.0393 136.849 79.7553 131.402 87.0186C126.424 93.6558 119.749 98.8085 112.1 101.946C111.605 106.507 110.128 110.917 107.757 114.867C104.977 119.501 101.06 123.35 96.3785 126.049C95.3503 126.642 94.0928 126.678 93.0319 126.146C91.9709 125.615 91.2481 124.585 91.108 123.406C90.7979 120.797 90.1899 118.25 89.3063 115.811C86.5869 118.943 83.2663 121.529 79.5192 123.402C73.8568 126.234 67.4775 127.309 61.1998 126.491C59.6116 126.284 58.3619 125.034 58.1549 123.446C57.337 117.169 58.4126 110.789 61.2438 105.127C63.1174 101.38 65.703 98.0592 68.8356 95.3398C66.419 94.4646 63.8965 93.8596 61.3131 93.5469C61.0548 93.5218 60.797 93.4678 60.5446 93.3838C59.6406 93.0849 58.9128 92.4364 58.4996 91.6143C58.0882 90.7918 58.0036 89.8216 58.3043 88.9189C58.389 88.663 58.5016 88.4208 58.6383 88.1963C61.3354 83.5459 65.1684 79.655 69.7789 76.8887C73.7291 74.5186 78.1389 73.0411 82.6998 72.5459C85.8377 64.8968 90.9903 58.2222 97.6276 53.2441C104.891 47.7967 113.607 44.6252 122.672 44.1309C122.736 44.1274 122.801 44.125 122.865 44.125ZM75.8561 98.8418C72.3325 101.216 69.4702 104.466 67.5602 108.286C65.7848 111.837 64.8966 115.75 64.9528 119.692C68.8951 119.749 72.8089 118.861 76.36 117.086C80.18 115.176 83.4299 112.314 85.8043 108.79C84.5208 106.822 83.0299 104.98 81.3483 103.298C79.6666 101.616 77.8245 100.125 75.8561 98.8418ZM122.956 51.1885C115.321 51.6247 107.984 54.3044 101.865 58.8936C95.7192 63.5029 91.0783 69.8313 88.5289 77.0781C88.0458 78.4515 86.7691 79.3875 85.3141 79.4355C81.1131 79.5743 77.017 80.7827 73.4127 82.9453C71.2969 84.2148 69.3911 85.7882 67.7535 87.6084C74.7523 89.4611 81.175 93.1363 86.3424 98.3037C91.5098 103.471 95.185 109.894 97.0377 116.893C98.8579 115.255 100.431 113.349 101.701 111.233C103.863 107.629 105.072 103.533 105.211 99.332C105.259 97.877 106.195 96.6003 107.568 96.1172C114.815 93.5678 121.143 88.9261 125.753 82.7803C130.342 76.6615 133.021 69.3249 133.458 61.6904C133.434 58.9138 132.32 56.2562 130.355 54.291C128.39 52.3259 125.732 51.2124 122.956 51.1885ZM113.448 62.959C117.998 62.959 121.687 66.6476 121.687 71.1982C121.687 75.7488 117.998 79.4375 113.448 79.4375C108.897 79.4375 105.209 75.7488 105.209 71.1982C105.209 66.6476 108.897 62.959 113.448 62.959ZM113.448 70.0215C112.798 70.0215 112.271 70.5482 112.271 71.1982C112.271 71.8483 112.798 72.375 113.448 72.375C114.098 72.375 114.625 71.8483 114.625 71.1982C114.625 70.5482 114.098 70.0215 113.448 70.0215Z" fill="white"/>
</g>
<defs>
<clipPath id="clip0_4_747">
<rect width="200" height="180" fill="white"/>
</clipPath>
</defs>
</svg>
