<svg width="200" height="180" viewBox="0 0 200 180" fill="none" xmlns="http://www.w3.org/2000/svg">
<path fill-rule="evenodd" clip-rule="evenodd" d="M152.5 91.0449C152.5 93.574 151.005 95.864 148.689 96.8814L143.246 99.2732C142.532 101.628 141.623 103.882 140.52 106.061L143.808 114.457C144.731 116.815 144.171 119.495 142.382 121.287L135.88 127.796C134.091 129.587 131.411 130.15 129.052 129.229L120.416 125.858C118.543 126.762 116.577 127.536 114.565 128.172L112.135 133.71C111.119 136.027 108.828 137.523 106.298 137.523H97.0919C94.5569 137.523 92.2627 136.021 91.2489 133.698L88.8984 128.311C86.6822 127.638 84.5448 126.813 82.4955 125.821L73.4091 129.372C71.051 130.293 68.3711 129.732 66.5809 127.942L60.0809 121.442C58.291 119.652 57.7296 116.972 58.6507 114.614L62.2022 105.523C61.2378 103.511 60.4172 101.42 59.7542 99.2732L54.3106 96.8814C51.9951 95.864 50.5 93.574 50.5 91.0449V81.8336C50.5 79.3026 51.9973 77.0113 54.3154 75.9951L59.7959 73.5924C60.6073 70.9867 61.6644 68.4692 62.9208 66.1L60.3471 59.5052C59.4264 57.1461 59.9894 54.4657 61.7814 52.6763L68.293 46.1745C70.0828 44.3874 72.7598 43.8274 75.1158 44.7471L82.0458 47.4525C84.2249 46.3676 86.5199 45.4404 88.903 44.7264L91.2546 39.3287C92.2677 37.0035 94.5627 35.5 97.099 35.5H106.302C108.833 35.5 111.123 36.9965 112.14 39.3136L114.57 44.8515C116.911 45.598 119.183 46.5345 121.33 47.6334L128.382 44.8817C130.74 43.962 133.418 44.5236 135.207 46.3129L141.708 52.8134C143.498 54.604 144.059 57.2847 143.137 59.6431L140.385 66.6795C141.498 68.8957 142.462 71.1954 143.204 73.5924L148.685 75.9951C151.003 77.0113 152.5 79.3026 152.5 81.8336V91.0449ZM127 86.5C127 100.583 115.583 112 101.5 112C87.4167 112 76 100.583 76 86.5C76 72.4167 87.4167 61 101.5 61C115.583 61 127 72.4167 127 86.5Z" fill="black" fill-opacity="0.12"/>
</svg>
