<svg width="30" height="30" viewBox="0 0 30 30" fill="none" xmlns="http://www.w3.org/2000/svg">
<path d="M13.7695 19.0498C13.7273 19.425 13.7305 19.8043 13.7812 20.1787H8.56445C8.25269 20.1786 8 19.926 8 19.6143C8.00008 19.3025 8.25274 19.0499 8.56445 19.0498H13.7695ZM18.7002 19.96C18.4806 20.1796 18.125 20.1795 17.9053 19.96C17.6856 19.7403 17.6856 19.3847 17.9053 19.165L18.0205 19.0498H19.6104L18.7002 19.96ZM16.3506 15.0625L15.751 15.6621H8.56445C8.25269 15.662 8 15.4085 8 15.0967C8.00023 14.7851 8.25284 14.5323 8.56445 14.5322H15.8203L16.3506 15.0625ZM13.7734 10.0156C13.7283 10.3906 13.7295 10.7699 13.7773 11.1445H8.56445C8.25279 11.1444 8.00015 10.8917 8 10.5801C8 10.2683 8.25269 10.0157 8.56445 10.0156H13.7734ZM18.4268 10.0156C18.5267 10.0383 18.6223 10.0872 18.7002 10.165L19.6797 11.1445H18.0898L17.9053 10.96C17.6856 10.7403 17.6856 10.3847 17.9053 10.165C17.9833 10.0871 18.0786 10.0382 18.1787 10.0156H18.4268Z" fill="#64748B"/>
<path fill-rule="evenodd" clip-rule="evenodd" d="M17.905 10.1648C17.6853 10.3844 17.6853 10.7406 17.905 10.9602L22.0072 15.0625L17.905 19.1648C17.6853 19.3844 17.6853 19.7406 17.905 19.9602C18.1247 20.1799 18.4808 20.1799 18.7005 19.9602L23.2005 15.4602C23.4202 15.2406 23.4202 14.8844 23.2005 14.6648L18.7005 10.1648C18.4808 9.94508 18.1247 9.94508 17.905 10.1648Z" fill="#64748B"/>
</svg>
