<svg width="190" height="230" viewBox="0 0 190 230" fill="none" xmlns="http://www.w3.org/2000/svg">
<g filter="url(#filter0_d)">
<rect x="4" y="3" width="180" height="220" fill="white"/>
<rect x="30" y="163" width="27" height="27" fill="#F7F7F7"/>
<rect x="64" y="163" width="27" height="27" fill="#F7F7F7"/>
<rect x="98" y="163" width="61" height="27" fill="#EDEDED"/>
<rect x="29" y="92" width="130" height="24" fill="#EDEDED"/>
<path d="M145.5 108L139.871 101.25L151.129 101.25L145.5 108Z" fill="white"/>
<rect x="29" y="127" width="130" height="24" fill="#EDEDED"/>
<path d="M145.5 143L139.871 136.25L151.129 136.25L145.5 143Z" fill="white"/>
<rect x="29" y="57" width="130" height="24" fill="#EDEDED"/>
<path d="M27.6445 32.6045H23.4678V37H22.1553V27.0469H28.3213V28.127H23.4678V31.5312H27.6445V32.6045ZM29.21 33.2334C29.21 32.5088 29.3512 31.8571 29.6338 31.2783C29.9209 30.6995 30.3174 30.2529 30.8232 29.9385C31.3337 29.624 31.9147 29.4668 32.5664 29.4668C33.5736 29.4668 34.387 29.8154 35.0068 30.5127C35.6312 31.21 35.9434 32.1374 35.9434 33.2949V33.3838C35.9434 34.1038 35.8044 34.751 35.5264 35.3252C35.2529 35.8949 34.8587 36.3392 34.3438 36.6582C33.8333 36.9772 33.2454 37.1367 32.5801 37.1367C31.5775 37.1367 30.764 36.7881 30.1396 36.0908C29.5199 35.3936 29.21 34.4707 29.21 33.3223V33.2334ZM30.4814 33.3838C30.4814 34.2041 30.6706 34.8626 31.0488 35.3594C31.4316 35.8561 31.9421 36.1045 32.5801 36.1045C33.2227 36.1045 33.7331 35.8538 34.1113 35.3525C34.4896 34.8467 34.6787 34.1403 34.6787 33.2334C34.6787 32.4222 34.485 31.766 34.0977 31.2646C33.7148 30.7588 33.2044 30.5059 32.5664 30.5059C31.9421 30.5059 31.4385 30.7542 31.0557 31.251C30.6729 31.7477 30.4814 32.4587 30.4814 33.3838ZM41.1045 30.7383C40.9131 30.7064 40.7057 30.6904 40.4824 30.6904C39.653 30.6904 39.0902 31.0436 38.7939 31.75V37H37.5293V29.6035H38.7598L38.7803 30.458C39.195 29.7972 39.7829 29.4668 40.5439 29.4668C40.79 29.4668 40.9769 29.4987 41.1045 29.5625V30.7383ZM43.4629 29.6035L43.4971 30.4238C44.0394 29.7858 44.7708 29.4668 45.6914 29.4668C46.7259 29.4668 47.43 29.8633 47.8037 30.6562C48.0498 30.3008 48.3688 30.0137 48.7607 29.7949C49.1572 29.5762 49.6243 29.4668 50.1621 29.4668C51.7845 29.4668 52.6094 30.3258 52.6367 32.0439V37H51.3721V32.1191C51.3721 31.5905 51.2513 31.1963 51.0098 30.9365C50.7682 30.6722 50.3626 30.54 49.793 30.54C49.3236 30.54 48.9339 30.6813 48.624 30.9639C48.3141 31.2419 48.1341 31.6178 48.084 32.0918V37H46.8125V32.1533C46.8125 31.0778 46.2861 30.54 45.2334 30.54C44.404 30.54 43.8366 30.8932 43.5312 31.5996V37H42.2666V29.6035H43.4629Z" fill="#383838"/>
<path d="M12 4H176V2H12V4ZM183 11V215H185V11H183ZM176 222H12V224H176V222ZM5 215V11H3V215H5ZM12 222C8.13401 222 5 218.866 5 215H3C3 219.971 7.02944 224 12 224V222ZM183 215C183 218.866 179.866 222 176 222V224C180.971 224 185 219.971 185 215H183ZM176 4C179.866 4 183 7.13401 183 11H185C185 6.02944 180.971 2 176 2V4ZM12 2C7.02944 2 3 6.02944 3 11H5C5 7.13401 8.13401 4 12 4V2Z" fill="#EDEDED"/>
</g>
<defs>
<filter id="filter0_d" x="0" y="0" width="190" height="230" filterUnits="userSpaceOnUse" color-interpolation-filters="sRGB">
<feFlood flood-opacity="0" result="BackgroundImageFix"/>
<feColorMatrix in="SourceAlpha" type="matrix" values="0 0 0 0 0 0 0 0 0 0 0 0 0 0 0 0 0 0 127 0"/>
<feOffset dx="1" dy="2"/>
<feGaussianBlur stdDeviation="2.5"/>
<feColorMatrix type="matrix" values="0 0 0 0 0 0 0 0 0 0 0 0 0 0 0 0 0 0 0.1 0"/>
<feBlend mode="normal" in2="BackgroundImageFix" result="effect1_dropShadow"/>
<feBlend mode="normal" in="SourceGraphic" in2="effect1_dropShadow" result="shape"/>
</filter>
</defs>
</svg>
