<svg width="200" height="180" viewBox="0 0 200 180" fill="none" xmlns="http://www.w3.org/2000/svg">
<path d="M29 21H144L174 51V171H29V21Z" fill="black" fill-opacity="0.05"/>
<path d="M144 21L174 51L144 51L144 21Z" fill="black" fill-opacity="0.1"/>
<path d="M78.8539 92.6364L82.5726 99.0696H82.7317L86.4903 92.6364H91.9988L85.8539 102.818L92.1976 113H86.5499L82.7317 106.497H82.5726L78.7545 113H73.1465L79.4604 102.818L73.3056 92.6364H78.8539ZM95.6642 113V92.6364H100.586V109.003H109.058V113H95.6642ZM123.733 98.7415C123.666 98.0123 123.371 97.4455 122.848 97.0412C122.331 96.6302 121.592 96.4247 120.63 96.4247C119.994 96.4247 119.464 96.5076 119.04 96.6733C118.615 96.839 118.297 97.0677 118.085 97.3594C117.873 97.6444 117.764 97.9725 117.757 98.3438C117.744 98.6487 117.803 98.9171 117.936 99.1491C118.075 99.3812 118.274 99.5866 118.532 99.7656C118.798 99.938 119.116 100.09 119.487 100.223C119.858 100.356 120.276 100.472 120.74 100.571L122.49 100.969C123.497 101.188 124.386 101.479 125.155 101.844C125.93 102.208 126.58 102.643 127.103 103.146C127.634 103.65 128.035 104.23 128.307 104.886C128.578 105.543 128.718 106.278 128.724 107.094C128.718 108.38 128.393 109.483 127.75 110.405C127.107 111.326 126.182 112.032 124.976 112.523C123.776 113.013 122.327 113.259 120.63 113.259C118.927 113.259 117.442 113.003 116.176 112.493C114.91 111.982 113.925 111.207 113.223 110.166C112.52 109.125 112.159 107.81 112.139 106.219H116.852C116.892 106.875 117.068 107.422 117.379 107.859C117.691 108.297 118.118 108.628 118.662 108.854C119.212 109.079 119.848 109.192 120.571 109.192C121.234 109.192 121.797 109.102 122.261 108.923C122.732 108.744 123.093 108.496 123.345 108.178C123.597 107.859 123.726 107.495 123.733 107.084C123.726 106.699 123.607 106.371 123.375 106.099C123.143 105.821 122.785 105.582 122.301 105.384C121.824 105.178 121.214 104.989 120.471 104.817L118.344 104.32C116.58 103.915 115.192 103.262 114.177 102.361C113.163 101.453 112.659 100.226 112.666 98.6818C112.659 97.4223 112.997 96.3187 113.68 95.3707C114.363 94.4228 115.308 93.6837 116.514 93.1534C117.72 92.6231 119.096 92.358 120.64 92.358C122.218 92.358 123.587 92.6264 124.747 93.1634C125.914 93.6937 126.818 94.4394 127.461 95.4006C128.104 96.3617 128.433 97.4754 128.446 98.7415H123.733Z" fill="black" fill-opacity="0.4"/>
</svg>
