<svg width="200" height="180" viewBox="0 0 200 180" fill="none" xmlns="http://www.w3.org/2000/svg">
<path d="M29 21H144L174 51V171H29V21Z" fill="black" fill-opacity="0.05"/>
<path d="M144 21L174 51L144 51L144 21Z" fill="black" fill-opacity="0.1"/>
<path d="M71.9698 96.6335V92.6364H89.1815V96.6335H83.0068V113H78.1545V96.6335H71.9698ZM97.6868 92.6364L101.406 99.0696H101.565L105.323 92.6364H110.832L104.687 102.818L111.031 113H105.383L101.565 106.497H101.406L97.5874 113H91.9794L98.2933 102.818L92.1385 92.6364H97.6868ZM113.831 96.6335V92.6364H131.043V96.6335H124.868V113H120.016V96.6335H113.831Z" fill="black" fill-opacity="0.4"/>
</svg>
