<svg width="200" height="180" viewBox="0 0 200 180" fill="none" xmlns="http://www.w3.org/2000/svg">
<path d="M29 21H144L174 51V171H29V21Z" fill="black" fill-opacity="0.05"/>
<path d="M144 21L174 51L144 51L144 21Z" fill="black" fill-opacity="0.1"/>
<path d="M92.9043 92.6364H97.7566V106.716C97.75 108.035 97.4351 109.188 96.812 110.176C96.1889 111.157 95.3271 111.92 94.2268 112.463C93.133 113.007 91.8669 113.278 90.4285 113.278C89.1557 113.278 87.999 113.056 86.9583 112.612C85.9242 112.168 85.0989 111.479 84.4824 110.544C83.8726 109.609 83.571 108.413 83.5776 106.955H88.4796C88.4995 107.478 88.5989 107.926 88.7779 108.297C88.9635 108.661 89.2187 108.937 89.5435 109.122C89.8683 109.308 90.2561 109.401 90.7069 109.401C91.1775 109.401 91.5752 109.301 91.9001 109.102C92.2249 108.897 92.4701 108.595 92.6358 108.197C92.8082 107.8 92.8977 107.306 92.9043 106.716V92.6364ZM112.974 98.7415C112.907 98.0123 112.612 97.4455 112.089 97.0412C111.572 96.6302 110.832 96.4247 109.871 96.4247C109.235 96.4247 108.705 96.5076 108.28 96.6733C107.856 96.839 107.538 97.0677 107.326 97.3594C107.114 97.6444 107.004 97.9725 106.998 98.3438C106.984 98.6487 107.044 98.9171 107.177 99.1491C107.316 99.3812 107.515 99.5866 107.773 99.7656C108.038 99.938 108.357 100.09 108.728 100.223C109.099 100.356 109.517 100.472 109.981 100.571L111.731 100.969C112.738 101.188 113.626 101.479 114.395 101.844C115.171 102.208 115.821 102.643 116.344 103.146C116.875 103.65 117.276 104.23 117.547 104.886C117.819 105.543 117.958 106.278 117.965 107.094C117.958 108.38 117.634 109.483 116.991 110.405C116.348 111.326 115.423 112.032 114.216 112.523C113.017 113.013 111.568 113.259 109.871 113.259C108.168 113.259 106.683 113.003 105.417 112.493C104.151 111.982 103.166 111.207 102.464 110.166C101.761 109.125 101.4 107.81 101.38 106.219H106.093C106.133 106.875 106.308 107.422 106.62 107.859C106.931 108.297 107.359 108.628 107.903 108.854C108.453 109.079 109.089 109.192 109.812 109.192C110.474 109.192 111.038 109.102 111.502 108.923C111.973 108.744 112.334 108.496 112.586 108.178C112.838 107.859 112.967 107.495 112.974 107.084C112.967 106.699 112.848 106.371 112.616 106.099C112.384 105.821 112.026 105.582 111.542 105.384C111.064 105.178 110.455 104.989 109.712 104.817L107.584 104.32C105.821 103.915 104.432 103.262 103.418 102.361C102.404 101.453 101.9 100.226 101.907 98.6818C101.9 97.4223 102.238 96.3187 102.921 95.3707C103.604 94.4228 104.548 93.6837 105.755 93.1534C106.961 92.6231 108.337 92.358 109.881 92.358C111.459 92.358 112.828 92.6264 113.988 93.1634C115.154 93.6937 116.059 94.4394 116.702 95.4006C117.345 96.3617 117.673 97.4754 117.687 98.7415H112.974Z" fill="black" fill-opacity="0.4"/>
</svg>
