<svg width="200" height="180" viewBox="0 0 200 180" fill="none" xmlns="http://www.w3.org/2000/svg">
<path d="M29 21H144L174 51V171H29V21Z" fill="black" fill-opacity="0.05"/>
<path d="M144 21L174 51L144 51L144 21Z" fill="black" fill-opacity="0.1"/>
<path d="M73.8724 113V92.6364H82.2843C83.8089 92.6364 85.1247 92.9347 86.2317 93.5312C87.3454 94.1212 88.2038 94.9465 88.807 96.0071C89.4102 97.0611 89.7119 98.2874 89.7119 99.6861C89.7119 101.091 89.4036 102.321 88.7871 103.375C88.1773 104.422 87.3056 105.234 86.1721 105.811C85.0386 106.388 83.6929 106.676 82.1351 106.676H76.9448V102.798H81.2204C81.9628 102.798 82.5826 102.669 83.0798 102.411C83.5835 102.152 83.9647 101.791 84.2232 101.327C84.4817 100.856 84.611 100.309 84.611 99.6861C84.611 99.0563 84.4817 98.5128 84.2232 98.0554C83.9647 97.5914 83.5835 97.2334 83.0798 96.9815C82.576 96.7296 81.9562 96.6037 81.2204 96.6037H78.7942V113H73.8724ZM100.785 113H93.258V92.6364H100.775C102.85 92.6364 104.636 93.044 106.134 93.8594C107.639 94.6681 108.799 95.8348 109.615 97.3594C110.43 98.8774 110.838 100.694 110.838 102.808C110.838 104.929 110.43 106.752 109.615 108.277C108.806 109.802 107.649 110.972 106.144 111.787C104.64 112.596 102.853 113 100.785 113ZM98.1799 108.804H100.596C101.736 108.804 102.701 108.612 103.49 108.227C104.285 107.836 104.885 107.203 105.289 106.328C105.7 105.446 105.906 104.273 105.906 102.808C105.906 101.343 105.7 100.177 105.289 99.3082C104.878 98.4332 104.272 97.8035 103.47 97.419C102.674 97.0279 101.693 96.8324 100.526 96.8324H98.1799V108.804ZM114.831 113V92.6364H128.732V96.6335H119.753V100.81H127.847V104.817H119.753V113H114.831Z" fill="black" fill-opacity="0.4"/>
</svg>
