<svg width="200" height="180" viewBox="0 0 200 180" fill="none" xmlns="http://www.w3.org/2000/svg">
<path d="M29 21H144L174 51V171H29V21Z" fill="black" fill-opacity="0.05"/>
<path d="M144 21L174 51L144 51L144 21Z" fill="black" fill-opacity="0.1"/>
<path d="M89.2122 100.014H84.2406C84.1743 99.5038 84.0384 99.0431 83.8329 98.6321C83.6275 98.2211 83.3557 97.8698 83.0176 97.5781C82.6795 97.2865 82.2785 97.0644 81.8145 96.9119C81.3571 96.7528 80.85 96.6733 80.2932 96.6733C79.3055 96.6733 78.4537 96.9152 77.7378 97.3991C77.0285 97.883 76.4816 98.5824 76.0972 99.4972C75.7193 100.412 75.5304 101.519 75.5304 102.818C75.5304 104.17 75.7226 105.304 76.1071 106.219C76.4982 107.127 77.0451 107.813 77.7477 108.277C78.457 108.734 79.2955 108.963 80.2633 108.963C80.8069 108.963 81.3008 108.893 81.7449 108.754C82.1956 108.615 82.59 108.413 82.9281 108.148C83.2728 107.876 83.5545 107.548 83.7733 107.163C83.9987 106.772 84.1544 106.331 84.2406 105.841L89.2122 105.871C89.126 106.772 88.8642 107.661 88.4267 108.536C87.9958 109.411 87.4025 110.209 86.6469 110.932C85.8912 111.648 84.9698 112.218 83.8827 112.642C82.8022 113.066 81.5626 113.278 80.1639 113.278C78.3211 113.278 76.6705 112.874 75.2122 112.065C73.7605 111.25 72.6137 110.063 71.7719 108.506C70.93 106.948 70.5091 105.052 70.5091 102.818C70.5091 100.578 70.9366 98.6785 71.7918 97.1207C72.6469 95.563 73.8036 94.3797 75.2619 93.571C76.7203 92.7623 78.3543 92.358 80.1639 92.358C81.3969 92.358 82.537 92.5303 83.5844 92.875C84.6317 93.2131 85.5531 93.7102 86.3486 94.3665C87.144 95.0161 87.7903 95.8149 88.2875 96.7628C88.7847 97.7107 89.0929 98.7945 89.2122 100.014ZM104.156 98.7415C104.089 98.0123 103.794 97.4455 103.271 97.0412C102.754 96.6302 102.015 96.4247 101.053 96.4247C100.417 96.4247 99.8868 96.5076 99.4625 96.6733C99.0383 96.839 98.7201 97.0677 98.508 97.3594C98.2959 97.6444 98.1865 97.9725 98.1799 98.3438C98.1666 98.6487 98.2263 98.9171 98.3588 99.1491C98.498 99.3812 98.6969 99.5866 98.9554 99.7656C99.2206 99.938 99.5388 100.09 99.91 100.223C100.281 100.356 100.699 100.472 101.163 100.571L102.913 100.969C103.92 101.188 104.809 101.479 105.578 101.844C106.353 102.208 107.003 102.643 107.526 103.146C108.057 103.65 108.458 104.23 108.73 104.886C109.001 105.543 109.141 106.278 109.147 107.094C109.141 108.38 108.816 109.483 108.173 110.405C107.53 111.326 106.605 112.032 105.399 112.523C104.199 113.013 102.75 113.259 101.053 113.259C99.3498 113.259 97.865 113.003 96.5989 112.493C95.3328 111.982 94.3484 111.207 93.6458 110.166C92.9431 109.125 92.5819 107.81 92.562 106.219H97.275C97.3148 106.875 97.4905 107.422 97.802 107.859C98.1136 108.297 98.5411 108.628 99.0847 108.854C99.6349 109.079 100.271 109.192 100.994 109.192C101.657 109.192 102.22 109.102 102.684 108.923C103.155 108.744 103.516 108.496 103.768 108.178C104.02 107.859 104.149 107.495 104.156 107.084C104.149 106.699 104.03 106.371 103.798 106.099C103.566 105.821 103.208 105.582 102.724 105.384C102.247 105.178 101.637 104.989 100.894 104.817L98.7665 104.32C97.0033 103.915 95.6145 103.262 94.6003 102.361C93.5861 101.453 93.0823 100.226 93.089 98.6818C93.0823 97.4223 93.4204 96.3187 94.1032 95.3707C94.7859 94.4228 95.7305 93.6837 96.937 93.1534C98.1434 92.6231 99.5189 92.358 101.063 92.358C102.641 92.358 104.01 92.6264 105.17 93.1634C106.337 93.6937 107.241 94.4394 107.884 95.4006C108.527 96.3617 108.856 97.4754 108.869 98.7415H104.156ZM117.377 92.6364L121.931 107.551H122.1L126.654 92.6364H132.162L125.291 113H118.739L111.868 92.6364H117.377Z" fill="black" fill-opacity="0.4"/>
</svg>
