<svg width="200" height="180" viewBox="0 0 200 180" fill="none" xmlns="http://www.w3.org/2000/svg">
<g clip-path="url(#clip0_50_7)">
<rect width="200" height="180" fill="white"/>
<rect x="57" y="37" width="89" height="110" fill="#CCCCCC" stroke="#CCCCCC" stroke-width="4"/>
<rect x="124" y="35" width="23" height="22" fill="#808080"/>
<path d="M148 57L124 34H148V57Z" fill="white"/>
<path d="M117.711 96.7695L121.578 83.9375H125.492L119.551 101H115.883L109.965 83.9375H113.867L117.711 96.7695Z" fill="white"/>
<path d="M104.488 96.5234C104.488 95.8594 104.254 95.3516 103.785 95C103.316 94.6406 102.473 94.2656 101.254 93.875C100.035 93.4766 99.0703 93.0859 98.3594 92.7031C96.4219 91.6562 95.4531 90.2461 95.4531 88.4727C95.4531 87.5508 95.7109 86.7305 96.2266 86.0117C96.75 85.2852 97.4961 84.7188 98.4648 84.3125C99.4414 83.9062 100.535 83.7031 101.746 83.7031C102.965 83.7031 104.051 83.9258 105.004 84.3711C105.957 84.8086 106.695 85.4297 107.219 86.2344C107.75 87.0391 108.016 87.9531 108.016 88.9766H104.5C104.5 88.1953 104.254 87.5898 103.762 87.1602C103.27 86.7227 102.578 86.5039 101.688 86.5039C100.828 86.5039 100.16 86.6875 99.6836 87.0547C99.207 87.4141 98.9688 87.8906 98.9688 88.4844C98.9688 89.0391 99.2461 89.5039 99.8008 89.8789C100.363 90.2539 101.188 90.6055 102.273 90.9336C104.273 91.5352 105.73 92.2812 106.645 93.1719C107.559 94.0625 108.016 95.1719 108.016 96.5C108.016 97.9766 107.457 99.1367 106.34 99.9805C105.223 100.816 103.719 101.234 101.828 101.234C100.516 101.234 99.3203 100.996 98.2422 100.52C97.1641 100.035 96.3398 99.375 95.7695 98.5391C95.207 97.7031 94.9258 96.7344 94.9258 95.6328H98.4531C98.4531 97.5156 99.5781 98.457 101.828 98.457C102.664 98.457 103.316 98.2891 103.785 97.9531C104.254 97.6094 104.488 97.1328 104.488 96.5234Z" fill="white"/>
<path d="M92.332 95.3164C92.1992 97.1523 91.5195 98.5977 90.293 99.6523C89.0742 100.707 87.4648 101.234 85.4648 101.234C83.2773 101.234 81.5547 100.5 80.2969 99.0312C79.0469 97.5547 78.4219 95.5312 78.4219 92.9609V91.918C78.4219 90.2773 78.7109 88.832 79.2891 87.582C79.8672 86.332 80.6914 85.375 81.7617 84.7109C82.8398 84.0391 84.0898 83.7031 85.5117 83.7031C87.4805 83.7031 89.0664 84.2305 90.2695 85.2852C91.4727 86.3398 92.168 87.8203 92.3555 89.7266H88.8398C88.7539 88.625 88.4453 87.8281 87.9141 87.3359C87.3906 86.8359 86.5898 86.5859 85.5117 86.5859C84.3398 86.5859 83.4609 87.0078 82.875 87.8516C82.2969 88.6875 82 89.9883 81.9844 91.7539V93.043C81.9844 94.8867 82.2617 96.2344 82.8164 97.0859C83.3789 97.9375 84.2617 98.3633 85.4648 98.3633C86.5508 98.3633 87.3594 98.1172 87.8906 97.625C88.4297 97.125 88.7383 96.3555 88.8164 95.3164H92.332Z" fill="white"/>
</g>
<defs>
<clipPath id="clip0_50_7">
<rect width="200" height="180" fill="white"/>
</clipPath>
</defs>
</svg>
