<svg width="200" height="180" viewBox="0 0 200 180" fill="none" xmlns="http://www.w3.org/2000/svg">
<rect x="20" y="136" width="160" height="30" fill="black" fill-opacity="0.1"/>
<path d="M154 53C166.976 53 173.997 63.2091 180 71.4629V118H22.7783C28.3323 111.031 34.7425 103.057 41.6133 96.4492C49.8404 88.5368 57.323 84 63.5 84C66.5083 84 69.6098 85.0108 73.168 86.833C76.9895 88.7902 80.1119 90.9665 84.4668 93.499C88.4181 95.7968 93.0546 98.1512 98.1924 98.9121C103.615 99.7151 109.196 98.6937 114.795 95.0146C125.945 87.6878 132.947 75.5616 138.594 66.9316C141.591 62.3512 144.157 58.7661 146.82 56.3037C149.345 53.9688 151.571 53 154 53ZM180 52.4072C173.912 46.4123 165.48 41 154 41C147.679 41 142.679 43.7882 138.673 47.4932C134.804 51.071 131.531 55.8097 128.553 60.3613C122.249 69.9954 116.751 79.3693 108.205 84.9854C105.054 87.056 102.442 87.4098 99.9512 87.041C97.1758 86.63 94.1783 85.2656 90.499 83.126C87.2234 81.2211 82.7179 78.241 78.6377 76.1514C74.2939 73.9268 69.219 72 63.5 72C52.2223 72 41.7041 79.7132 33.2949 87.8008C28.572 92.3431 24.0716 97.4546 20 102.356V19H180V52.4072Z" fill="black" fill-opacity="0.1"/>
</svg>
