<svg width="200" height="180" viewBox="0 0 200 180" fill="none" xmlns="http://www.w3.org/2000/svg">
<g clip-path="url(#clip0_4_716)">
<rect x="9" width="183" height="173" rx="18" fill="#00D6BC"/>
<path d="M88.0055 48.3145C90.8857 36.4505 107.763 36.4511 110.641 48.3164C110.811 49.0182 111.144 49.6712 111.614 50.2198C112.083 50.7683 112.676 51.1983 113.343 51.4746C114.01 51.7509 114.733 51.8654 115.453 51.8096C116.173 51.7538 116.87 51.5282 117.487 51.1524C127.913 44.801 139.849 56.7335 133.499 67.1641C133.123 67.7802 132.898 68.4761 132.842 69.1953C132.787 69.9147 132.902 70.6371 133.178 71.3037C133.454 71.9704 133.883 72.5628 134.431 73.0323C134.979 73.5013 135.629 73.8343 136.33 74.0049C148.196 76.8837 148.195 93.7628 136.329 96.6416C135.627 96.8117 134.975 97.1448 134.426 97.6143C133.878 98.0838 133.448 98.6768 133.172 99.3438C132.895 100.011 132.781 100.733 132.837 101.453C132.892 102.173 133.118 102.871 133.494 103.487C139.845 113.913 127.913 125.849 117.482 119.499C116.866 119.124 116.17 118.899 115.451 118.843C114.731 118.787 114.009 118.903 113.342 119.179C112.676 119.455 112.083 119.884 111.614 120.432C111.145 120.979 110.812 121.63 110.641 122.33C107.762 134.196 90.8834 134.195 88.0045 122.329C87.8345 121.627 87.5014 120.975 87.0319 120.427C86.5624 119.878 85.9694 119.448 85.3024 119.172C84.6355 118.896 83.9127 118.781 83.193 118.837C82.4732 118.893 81.7753 119.118 81.1588 119.494C70.7327 125.845 58.7969 113.913 65.1471 103.482C65.5224 102.866 65.7477 102.17 65.8034 101.451C65.859 100.732 65.7434 100.009 65.4674 99.3428C65.1914 98.6762 64.7624 98.0837 64.2145 97.6143C63.6671 97.1453 63.0164 96.8123 62.3161 96.6416C50.4501 93.7629 50.4511 76.8837 62.317 74.0049C63.0188 73.8349 63.6708 73.5017 64.2194 73.0323C64.7679 72.5628 65.1979 71.9698 65.4743 71.3028C65.7505 70.6358 65.865 69.9131 65.8092 69.1934C65.7534 68.4735 65.5279 67.7757 65.152 67.1592C58.801 56.7337 70.7306 44.7989 81.1608 51.1465C83.8276 52.7679 87.2699 51.3345 88.0055 48.3145ZM103.778 49.9815C102.645 45.312 96.0007 45.312 94.8678 49.9815C93.0035 57.6481 84.2392 61.2833 77.4899 57.1797C73.3813 54.6788 68.6833 59.3818 71.1833 63.4854C72.1375 65.0509 72.7095 66.8195 72.8512 68.6475C72.993 70.4758 72.7005 72.3117 71.9987 74.0059C71.2967 75.7002 70.2045 77.205 68.8112 78.3975C67.4181 79.5897 65.7631 80.4363 63.9811 80.8682C59.3117 82.0011 59.3137 88.6454 63.9831 89.7784C65.7638 90.2114 67.4175 91.0587 68.8092 92.251C70.201 93.4434 71.2917 94.9474 71.9928 96.6407C72.694 98.3339 72.9858 100.169 72.8444 101.996C72.7029 103.823 72.1326 105.591 71.1793 107.156C68.6788 111.265 73.3815 115.963 77.485 113.463C79.0506 112.509 80.8191 111.937 82.6471 111.795C84.4756 111.653 86.3122 111.946 88.0065 112.647C89.7006 113.349 91.2048 114.442 92.3971 115.835C93.5894 117.228 94.4359 118.883 94.8678 120.665C96.0007 125.334 102.645 125.332 103.778 120.663C104.211 118.882 105.058 117.229 106.251 115.837C107.443 114.445 108.947 113.354 110.64 112.653C112.334 111.952 114.169 111.66 115.996 111.802C117.823 111.943 119.591 112.514 121.156 113.467C125.264 115.967 129.962 111.265 127.463 107.161C126.508 105.596 125.936 103.827 125.795 101.999C125.653 100.171 125.945 98.334 126.647 96.6397C127.349 94.9456 128.441 93.4414 129.835 92.2491C131.228 91.0568 132.883 90.2103 134.665 89.7784C139.334 88.6455 139.332 82.0011 134.663 80.8682C132.882 80.4351 131.228 79.5879 129.837 78.3955C128.445 77.2032 127.354 75.6991 126.653 74.0059C125.952 72.3126 125.66 70.4777 125.801 68.6504C125.943 66.8234 126.513 65.0554 127.466 63.4903C129.967 59.3818 125.264 54.6838 121.161 57.1836C119.595 58.1379 117.827 58.7099 115.999 58.8516C114.17 58.9933 112.334 58.7009 110.64 57.9991C108.946 57.2971 107.441 56.2049 106.249 54.8116C105.056 53.4185 104.21 51.7635 103.778 49.9815ZM99.3229 67.667C109.074 67.667 116.979 75.572 116.979 85.3233C116.979 95.0745 109.074 102.98 99.3229 102.98C89.5716 102.98 81.6667 95.0745 81.6666 85.3233C81.6666 75.572 89.5716 67.667 99.3229 67.667ZM99.3229 74.7295C93.4721 74.7295 88.7291 79.4725 88.7291 85.3233C88.7292 91.174 93.4722 95.917 99.3229 95.917C105.174 95.917 109.917 91.174 109.917 85.3233C109.917 79.4725 105.174 74.7295 99.3229 74.7295Z" fill="white"/>
</g>
<defs>
<clipPath id="clip0_4_716">
<rect width="200" height="180" fill="white"/>
</clipPath>
</defs>
</svg>
