<svg width="200" height="180" viewBox="0 0 200 180" fill="none" xmlns="http://www.w3.org/2000/svg">
<g clip-path="url(#clip0_4_718)">
<rect x="9" width="183" height="173" rx="18" fill="#00D6BC"/>
<path d="M97.5914 39.87C98.6664 39.2653 99.9794 39.2653 101.054 39.87L119.808 50.4198C119.864 50.4492 119.919 50.4801 119.973 50.5126L138.641 61.0136C139.221 61.3195 139.723 61.7903 140.068 62.4042C140.392 62.9806 140.537 63.6091 140.521 64.2255V106.511C140.521 107.786 139.832 108.963 138.72 109.589L101.109 130.745C100.585 131.053 99.9745 131.229 99.3229 131.229C98.6712 131.229 98.0607 131.053 97.5367 130.745L59.9254 109.589C58.8135 108.963 58.1246 107.786 58.1246 106.511V64.1288C58.125 63.6995 58.2045 63.2657 58.3678 62.8495C58.4675 62.5947 58.5963 62.3525 58.7516 62.1278C59.0773 61.6552 59.5021 61.2832 59.9821 61.0253L97.5914 39.87ZM65.1871 104.445L95.7916 121.66V87.3876L78.8082 77.8348C78.773 77.8158 78.7384 77.7955 78.7037 77.7753L65.1871 70.1727V104.445ZM102.854 87.3886V121.66L133.459 104.445V70.1737L102.854 87.3886ZM87.693 74.7284L99.3239 81.2714L129.787 64.1356L118.156 57.5936L87.693 74.7284ZM68.86 64.1356L80.4899 70.6776L110.954 53.5419L99.3229 46.9999L68.86 64.1356Z" fill="white"/>
</g>
<defs>
<clipPath id="clip0_4_718">
<rect width="200" height="180" fill="white"/>
</clipPath>
</defs>
</svg>
