<svg width="200" height="180" viewBox="0 0 200 180" fill="none" xmlns="http://www.w3.org/2000/svg">
<g clip-path="url(#clip0_4_719)">
<rect x="9" width="183" height="173" rx="18" fill="#00D6BC"/>
<path d="M127.573 39.417C134.724 39.417 140.521 45.2143 140.521 52.3652V118.281C140.521 125.432 134.724 131.229 127.573 131.229H71.073C63.9221 131.229 58.1248 125.432 58.1248 118.281V52.3652C58.1248 45.2143 63.9221 39.417 71.073 39.417H127.573ZM71.073 46.4795C67.8226 46.4795 65.1873 49.1148 65.1873 52.3652V118.281C65.1873 121.532 67.8226 124.167 71.073 124.167H127.573C130.823 124.167 133.459 121.532 133.459 118.281V52.3652C133.459 49.1148 130.823 46.4795 127.573 46.4795H71.073ZM80.49 105.334C82.4401 105.334 84.0212 106.915 84.0212 108.865V108.912C84.0212 110.862 82.44 112.443 80.49 112.443C78.5398 112.443 76.9588 110.862 76.9587 108.912V108.865C76.9587 106.915 78.5397 105.334 80.49 105.334ZM99.323 105.334C101.273 105.334 102.854 106.915 102.854 108.865V108.912C102.854 110.862 101.273 112.443 99.323 112.443C97.3728 112.443 95.7918 110.862 95.7917 108.912V108.865C95.7917 106.915 97.3727 105.334 99.323 105.334ZM118.156 105.334C120.106 105.334 121.687 106.915 121.687 108.865V108.912C121.687 110.862 120.106 112.443 118.156 112.443C116.206 112.443 114.625 110.862 114.625 108.912V108.865C114.625 106.915 116.206 105.334 118.156 105.334ZM80.49 91.209C82.4401 91.2092 84.0212 92.7901 84.0212 94.7402V94.7871C84.0212 96.7372 82.44 98.3182 80.49 98.3184C78.5398 98.3184 76.9588 96.7373 76.9587 94.7871V94.7402C76.9587 92.79 78.5397 91.209 80.49 91.209ZM99.323 91.209C101.273 91.209 102.854 92.79 102.854 94.7402V94.7871C102.854 96.7373 101.273 98.3184 99.323 98.3184C97.3728 98.3184 95.7918 96.7373 95.7917 94.7871V94.7402C95.7917 92.79 97.3727 91.209 99.323 91.209ZM118.156 91.209C120.106 91.209 121.687 92.79 121.687 94.7402V94.7871C121.687 96.7373 120.106 98.3184 118.156 98.3184C116.206 98.3182 114.625 96.7372 114.625 94.7871V94.7402C114.625 92.7901 116.206 91.2092 118.156 91.209ZM113.448 58.25C117.999 58.25 121.687 61.9396 121.687 66.4902V71.1982C121.687 75.7488 117.999 79.4375 113.448 79.4375H85.198C80.6474 79.4375 76.9588 75.7488 76.9587 71.1982V66.4902C76.9587 61.9396 80.6474 58.25 85.198 58.25H113.448ZM85.198 65.3125C84.5479 65.3125 84.0212 65.8402 84.0212 66.4902V71.1982C84.0213 71.8483 84.5479 72.375 85.198 72.375H113.448C114.098 72.375 114.625 71.8483 114.625 71.1982V66.4902C114.625 65.8401 114.098 65.3125 113.448 65.3125H85.198Z" fill="white"/>
</g>
<defs>
<clipPath id="clip0_4_719">
<rect width="200" height="180" fill="white"/>
</clipPath>
</defs>
</svg>
