<svg width="200" height="180" viewBox="0 0 200 180" fill="none" xmlns="http://www.w3.org/2000/svg">
<g clip-path="url(#clip0_4_717)">
<rect x="9" width="183" height="173" rx="18" fill="#00D6BC"/>
<path d="M99.3229 39.417C124.676 39.417 145.229 59.9699 145.229 85.3232C145.229 110.677 124.676 131.229 99.3229 131.229C73.9696 131.229 53.4167 110.677 53.4166 85.3232C53.4166 59.9699 73.9696 39.417 99.3229 39.417ZM99.3229 46.4795C77.8701 46.4795 60.4791 63.8704 60.4791 85.3232C60.4792 106.776 77.8701 124.167 99.3229 124.167C120.776 124.167 138.167 106.776 138.167 85.3232C138.167 63.8704 120.776 46.4795 99.3229 46.4795ZM110.951 68.7012C112.33 67.3221 114.566 67.3221 115.945 68.7012C117.324 70.0802 117.324 72.3163 115.945 73.6953L93.7233 95.917H113.448C115.398 95.917 116.979 97.498 116.979 99.4482C116.979 101.398 115.398 102.979 113.448 102.979H85.1979C84.7192 102.979 84.2626 102.884 83.8463 102.712C83.4298 102.54 83.0394 102.284 82.7008 101.945C82.3622 101.607 82.1065 101.216 81.9342 100.8C81.7616 100.384 81.6666 99.9269 81.6666 99.4482V71.1982C81.6666 69.248 83.2476 67.667 85.1979 67.667C87.1481 67.667 88.7291 69.248 88.7291 71.1982V90.9229L110.951 68.7012Z" fill="white"/>
</g>
<defs>
<clipPath id="clip0_4_717">
<rect width="200" height="180" fill="white"/>
</clipPath>
</defs>
</svg>
